<svg width="30" height="30" viewBox="0 0 30 30" fill="none" xmlns="http://www.w3.org/2000/svg">
<path d="M0 1.31422e-10H30V30H0V1.31422e-10Z" fill="white"/>
<path d="M29.7503 26.3892C30.2282 25.9804 29.8467 27.4893 29.9872 0.807171C29.9551 0.68752 29.4571 -0.203215 29.2964 0.0427339C28.1195 1.8242 27.3725 3.76521 27.1114 5.23758C25.8783 3.5525 22.5405 0.780582 22.5566 1.36887C22.5807 2.23301 22.5325 3.09716 22.5927 3.95466C21.8135 3.44946 20.9299 3.06392 19.9498 2.90771C19.8334 2.89109 19.7169 2.98748 19.7892 3.08054C20.4117 3.9048 20.6447 4.85869 20.9781 5.78266C20.3234 5.57992 19.6647 5.38382 19.0019 5.20435C18.6003 5.09799 16.1863 4.49973 16.1823 4.72907C16.1823 4.87863 17.1021 6.63683 17.4716 7.21847C16.343 7.01241 15.2826 6.94926 14.1178 6.85287C14.0254 6.84622 13.9531 6.93596 13.9812 7.00243C14.3467 7.96297 15.2986 8.79388 17.7247 10.8213C16.2385 10.9576 14.7885 11.3631 13.2823 11.3763C13.1257 11.3763 13.0895 11.5392 13.206 11.609C13.6037 11.8417 14.0174 12.0577 14.4431 12.2538C12.8003 12.7324 12.8084 12.4532 12.7803 12.7789C12.7722 12.8487 12.8405 12.9019 12.9128 12.9218C15.0617 13.5832 16.1903 14.5039 17.9857 15.0589C16.8972 15.368 15.8409 15.4844 14.897 15.9463C13.8848 16.4416 13.0132 17.0864 12.0573 17.6481C11.9448 17.7145 12.0091 17.8807 12.1537 17.8408C13.4631 17.4819 15.1701 17.7079 16.5277 17.9106C14.9291 18.6751 13.447 19.8018 12.4107 20.9119C12.3184 21.0116 12.4308 21.1478 12.5754 21.088C14.3025 20.3768 17.2226 20.4266 19.3915 20.1574C16.7808 22.2314 17.0941 23.5276 15.5236 24.5712C15.2344 24.764 15.391 24.8936 15.5035 24.867C16.9615 24.518 18.4235 24.1956 19.8414 23.7569C18.9537 25.9139 18.8654 25.7943 18.3994 27.0905C18.1143 27.8882 17.9656 28.7424 17.9576 29.5733C17.9576 29.663 18.1062 29.673 18.1384 29.5932C18.3794 28.9983 18.9095 28.4765 19.4156 28.0211C19.994 27.5026 19.8615 27.6389 22.8377 25.2791C23.1792 25.0066 23.5206 24.7374 23.8499 24.4582C23.7093 25.4785 23.3438 26.7449 23.0386 27.7386C23.0145 27.8151 23.143 27.8915 23.2113 27.8217C24.2717 26.6983 25.7417 25.894 26.7298 24.7208C26.7017 27.0506 26.4165 27.1005 26.6173 29.8957C26.6254 30.0087 26.782 30.0353 26.8583 29.9488C27.9589 28.7224 28.3244 27.6057 29.7503 26.3892ZM29.7141 8.89691C29.682 8.89691 29.6498 8.90023 29.6177 8.90023C29.6619 8.61772 29.694 8.36513 29.7141 8.1358V8.89691ZM29.3888 0.272065C29.4972 0.4316 29.6057 0.594458 29.7141 0.753993V6.03526C29.6057 6.67339 29.678 7.29492 29.3968 8.91353C29.3607 8.91685 29.3245 8.92017 29.2884 8.9235C29.4771 7.13538 28.6216 5.82919 29.1237 4.30696C29.1317 4.28037 29.0835 4.26708 29.0715 4.29367C28.5855 5.72283 29.2201 7.37801 29.0353 8.94676C28.7742 8.97668 28.5694 9.00991 28.3445 9.05644C27.979 8.64099 27.6938 8.16571 27.5331 7.66384C26.774 5.28411 28.6578 1.40543 29.3888 0.272065ZM22.8096 1.58823C22.8257 1.5982 22.8418 1.60817 22.8538 1.61814C22.9422 1.77435 23.0265 1.92724 23.2233 2.21972C23.8821 3.21016 24.9585 4.27373 25.8944 5.21764C25.9104 5.23093 25.9385 5.21432 25.9265 5.1977C25.0629 4.20725 24.2596 3.38631 23.4362 2.16986C23.376 2.08345 23.3197 1.99703 23.2635 1.9073C24.2596 2.63185 25.1754 3.43949 25.9948 4.29699C26.3884 4.70912 26.7459 5.14452 27.0551 5.60318C26.8704 7.1387 27.3443 8.16238 28.1115 9.1063C27.979 9.33231 27.9147 9.66135 27.4287 9.29907C26.047 7.48104 24.5609 6.74984 23.9423 5.30738C23.9303 5.27747 23.874 5.29076 23.8861 5.32067C24.3721 6.50389 25.3521 7.12541 26.6896 8.69749C25.0107 7.59404 23.2354 7.45113 22.8498 4.12416C22.7494 3.28328 22.7815 2.42911 22.8096 1.58823ZM26.545 9.62811C26.4486 9.67132 26.3482 9.71785 26.2558 9.76438C26.0389 9.20933 25.6935 8.68752 25.2959 8.21889C25.5931 8.38175 25.9064 8.55125 26.1916 8.71743C26.3241 9.01988 26.4406 9.32234 26.545 9.62811ZM20.3113 3.36305C20.2792 3.30655 20.243 3.25005 20.2029 3.19354C21.1026 3.38299 21.9139 3.78848 22.6249 4.28702C22.7413 5.33064 23.0546 6.12499 23.4322 6.69998C22.7052 6.29118 22.2192 6.16488 21.2914 5.87905C20.9781 5.03484 20.7772 4.1574 20.3113 3.36305ZM16.5237 4.92184C18.1062 5.18773 19.6165 5.67963 21.1187 6.15158C23.4924 6.8994 24.8541 7.64722 26.1032 9.8375C25.8301 9.98042 25.6172 10.1067 25.4003 10.2496C22.3999 7.24838 22.5365 8.16239 20.6005 7.0822C20.5724 7.06558 20.5483 7.10214 20.5764 7.11876C22.8859 8.45487 21.9099 7.06558 25.1915 10.3959C25.0268 10.5122 24.8661 10.6352 24.7135 10.7648C24.4926 10.6983 24.2636 10.6518 24.0347 10.6086C23.6973 10.5488 23.3559 10.5056 23.0185 10.4358C22.3799 10.3095 20.243 9.46858 19.4518 8.90688C18.1223 7.94967 17.1463 6.28785 16.5237 4.92184ZM14.3266 7.10214C15.4352 7.19521 16.5679 7.26833 17.6524 7.48769C18.7931 9.1628 19.753 9.58823 20.9218 10.1001C21.5324 10.3693 22.4281 10.7249 23.1069 10.8512C23.9584 11.2833 23.8539 11.6256 23.6893 11.8516C21.7814 11.2733 19.2429 11.3597 16.6442 8.65428C16.6201 8.63102 16.5799 8.66425 16.604 8.68752C19.2911 11.5492 21.4962 11.4628 23.5286 12.0544C23.5085 12.081 23.4924 12.1109 23.4724 12.1375C22.7534 12.1142 21.9943 12.1441 21.2392 12.081C20.6246 11.8682 19.9579 11.6888 19.3032 11.5791C18.0942 10.9808 14.7805 8.08927 14.3266 7.10214ZM23.3117 12.4133C23.2715 12.4864 23.2314 12.5562 23.1952 12.6294C22.9904 12.6726 22.7815 12.6559 22.5727 12.6227C22.4602 12.5695 22.3276 12.5097 22.0625 12.3967C22.4803 12.4067 22.894 12.4033 23.3117 12.4133ZM18.0098 11.054C18.2066 11.2068 18.4075 11.3564 18.6203 11.496C17.6162 11.4129 16.8611 11.5359 15.8931 11.8117C15.7686 11.8018 14.3909 11.7885 13.8085 11.609C15.2263 11.5292 16.6 11.157 18.0098 11.054ZM13.9009 11.6987C14.411 11.8915 14.8608 11.948 15.3549 11.9746C15.1018 12.0544 15.0336 12.0743 14.8126 12.1408C14.4993 12.0045 14.1941 11.8549 13.9009 11.6987ZM13.5073 12.7789C15.0697 12.4499 16.5076 11.6854 18.1584 11.7419C19.7209 11.7951 23.0064 12.759 23.2113 13.776C20.2551 12.5064 17.8974 12.1208 18.4476 12.2771C19.7892 12.6626 21.6569 13.3041 23.2113 13.9854C23.1751 14.2347 23.0667 14.4906 22.898 14.6967C22.2794 15.4777 19.5562 15.1786 18.4637 14.8894C16.6844 14.4208 15.2424 13.3506 13.5073 12.7789ZM18.3954 15.1753C19.8775 15.5542 21.2793 15.5076 22.6811 15.1686C22.6931 15.3182 22.7132 15.4644 22.7373 15.6107C20.6849 16.1757 15.1701 16.8537 15.1661 16.8537C14.3266 16.9534 13.5755 17.3057 12.7562 17.4653C16.2546 15.2019 15.7887 15.9663 18.3954 15.1753ZM13.5916 17.4054C18.3794 16.2089 20.1185 16.4549 22.7855 15.8433C22.8538 16.1391 22.9502 16.4283 23.0747 16.7141C22.9341 16.764 22.7895 16.8138 22.649 16.8637C20.717 16.6643 18.4436 17.0731 16.9535 17.7145C15.9734 17.5483 14.5797 17.3788 13.5916 17.4054ZM12.969 20.6759C16.9093 16.6842 23.0787 16.8171 23.8901 17.5882C24.0106 17.7046 23.2997 18.5488 22.5927 18.9542C20.0422 20.4233 15.6642 19.6921 12.969 20.6759ZM15.8529 24.5978C17.3712 23.5209 17.2507 22.0353 19.9097 20.0843C20.3394 19.9912 21.9983 19.8151 23.2354 18.8412C23.633 18.7714 24.0266 18.7016 24.4042 18.5986C24.4805 18.6717 24.5568 18.7415 24.6372 18.8113C18.8814 21.6863 19.5843 22.8628 17.5198 23.7702C17.4917 23.7835 17.5158 23.8134 17.5439 23.8034C19.6084 22.9659 19.1345 21.8192 24.5729 19.0473C22.0545 20.8088 21.1669 20.5828 19.9498 23.4877C18.6244 23.9297 17.2427 24.3053 15.8529 24.5978ZM18.1584 29.1312C18.2026 28.5263 18.3432 27.9281 18.5842 27.3564C21.0383 21.4636 20.729 21.766 23.9062 19.8483C24.2837 19.6223 25.4806 18.9775 25.5088 19.0041C25.5529 19.0008 25.6011 19.0041 25.6453 19.0141C25.6975 19.024 25.7457 19.0407 25.7939 19.0573C24.593 20.6526 24.838 22.3477 22.1308 25.4885C20.3555 26.9144 18.8975 27.7752 18.1584 29.1312ZM22.5526 25.1429C24.6653 22.7166 24.6733 20.8653 25.7538 19.3032C25.798 19.2368 25.8462 19.1736 25.8984 19.1138C26.1594 19.2899 26.2117 19.6356 26.059 19.8948C25.1352 22.5006 25.9144 22.4175 22.5526 25.1429ZM26.7378 24.2854C25.7578 25.6215 24.5488 26.2928 23.376 27.3963C23.8821 25.9738 24.0789 25.3522 24.1994 24.1524C24.4845 23.8932 24.6854 23.6838 24.846 23.4977C24.4082 24.7307 24.4243 25.4453 23.7535 26.5986C23.7334 26.6319 23.7897 26.6584 23.8138 26.6285C24.5809 25.6248 24.8701 23.9862 25.071 23.2251C25.2638 22.9758 25.4003 22.7565 25.5047 22.5504C25.4525 23.2816 25.3401 24.1391 25.075 24.7939C25.0629 24.8271 25.1232 24.8404 25.1352 24.8072C25.7216 23.5309 25.4485 22.4939 26.3 19.835C26.7579 20.0211 27.26 20.164 27.7862 20.2671C27.9589 21.7095 27.7701 22.8761 26.7378 24.2854ZM28.722 27.024C28.0231 27.835 27.5171 28.749 26.8503 29.5799C26.7218 27.6422 26.8503 27.6422 27.027 24.3419C28.0312 22.9825 28.2762 21.8624 28.1557 20.5263C28.1878 20.4698 28.2199 20.41 28.2521 20.3535C28.5332 20.3934 28.8224 20.4233 29.1156 20.4432C29.1156 20.4532 29.1156 20.4599 29.1156 20.4698C29.1558 22.71 29.212 25.2226 27.8424 27.0307C27.6295 27.3132 29.3888 26.1267 29.3687 21.5001C29.3687 21.1711 29.3607 20.8421 29.3566 20.513C29.3566 20.4931 29.3566 20.4765 29.3566 20.4565C29.4089 20.4599 29.4651 20.4599 29.5173 20.4632C29.5695 20.4632 29.6619 20.6593 29.7141 20.8354V26.0934C29.3807 26.3826 29.2281 26.4358 28.722 27.024Z" fill="#444444"/>
<path d="M15.3509 11.9745C14.8569 11.9479 14.411 11.8914 13.8969 11.6986C14.1942 11.8549 14.4994 12.0044 14.8087 12.1407C15.0296 12.0742 15.0979 12.051 15.3509 11.9745Z" fill="#E9A55B"/>
<path d="M22.7373 15.6107C22.7132 15.4644 22.6931 15.3149 22.6811 15.1686C21.2793 15.511 19.8775 15.5575 18.3954 15.1753C15.7887 15.963 16.2547 15.2019 12.7602 17.4653C13.5756 17.3057 14.3307 16.9501 15.1702 16.8537C15.1702 16.8537 20.6849 16.1757 22.7373 15.6107Z" fill="#E9A55B"/>
<path d="M18.6244 11.496C18.4116 11.3564 18.2067 11.2068 18.0139 11.0539C16.6041 11.157 15.2304 11.5292 13.8126 11.609C14.395 11.7885 15.7727 11.8018 15.8972 11.8117C16.8612 11.5359 17.6203 11.4129 18.6244 11.496Z" fill="#E9A55B"/>
<path d="M23.1952 12.6294C23.2314 12.5562 23.2715 12.4864 23.3117 12.4133C22.894 12.4033 22.4803 12.4067 22.0625 12.3967C22.3276 12.5097 22.4602 12.5695 22.5727 12.6227C22.7815 12.6526 22.9944 12.6726 23.1952 12.6294Z" fill="#E9A55B"/>
<path d="M22.9061 14.7001C23.0707 14.4907 23.1832 14.2381 23.2194 13.9888C21.6649 13.3074 19.7972 12.666 18.4557 12.2804C17.9014 12.1209 20.2632 12.5064 23.2194 13.7794C23.0145 12.7624 19.729 11.7985 18.1665 11.7453C16.5117 11.6888 15.0778 12.4533 13.5153 12.7823C15.2505 13.354 16.6884 14.4209 18.4758 14.8961C19.5643 15.182 22.2875 15.4811 22.9061 14.7001Z" fill="#E9A55B"/>
<path d="M22.645 16.867C22.7856 16.8172 22.9302 16.7673 23.0708 16.7175C22.9463 16.4316 22.8499 16.1391 22.7816 15.8467C20.1146 16.4582 18.3754 16.2123 13.5877 17.4088C14.5798 17.3789 15.9735 17.5484 16.9495 17.7212C18.4397 17.0764 20.7131 16.6676 22.645 16.867Z" fill="#E9A55B"/>
<path d="M21.2433 12.0844C22.0024 12.1475 22.7575 12.1176 23.4765 12.1409C23.4925 12.1143 23.5126 12.0844 23.5327 12.0578C21.5003 11.4662 19.2952 11.5526 16.6081 8.69095C16.584 8.66769 16.6242 8.63445 16.6483 8.65772C19.247 11.3632 21.7855 11.2767 23.6934 11.8551C23.858 11.6291 23.9625 11.2867 23.111 10.8546C22.4322 10.725 21.5365 10.3694 20.9259 10.1035C19.7571 9.59166 18.7972 9.16623 17.6565 7.49112C16.572 7.26844 15.4353 7.19532 14.3307 7.10558C14.7846 8.08937 18.0983 10.9843 19.3113 11.5825C19.962 11.6889 20.6287 11.8684 21.2433 12.0844Z" fill="#E9A55B"/>
<path d="M26.6857 8.69755C25.3481 7.12546 24.3681 6.50394 23.8821 5.32073C23.8701 5.29081 23.9263 5.27752 23.9383 5.30743C24.5569 6.74989 26.043 7.48442 27.4247 9.29912C27.9107 9.6614 27.979 9.33236 28.1075 9.10635C27.3404 8.16244 26.8664 7.13876 27.0512 5.60324C26.7419 5.1479 26.3804 4.70918 25.9908 4.29705C25.1714 3.43622 24.2556 2.6319 23.2595 1.90735C23.3158 1.99709 23.372 2.0835 23.4322 2.16992C24.2556 3.38637 25.059 4.20398 25.9225 5.19775C25.9346 5.21105 25.9065 5.23099 25.8904 5.21769C24.9505 4.27378 23.8741 3.21022 23.2194 2.21977C23.0266 1.92729 22.9422 1.7744 22.8498 1.61819C22.8338 1.60822 22.8217 1.59825 22.8057 1.58828C22.7775 2.42916 22.7454 3.28334 22.8418 4.12422C23.2314 7.45118 25.0067 7.5941 26.6857 8.69755Z" fill="#E9A55B"/>
<path d="M23.4322 6.69998C23.0546 6.12499 22.7413 5.33064 22.6249 4.28702C21.918 3.78848 21.1066 3.38299 20.2029 3.19354C20.239 3.25005 20.2752 3.30655 20.3113 3.36305C20.7772 4.1574 20.9781 5.03816 21.2914 5.87905C22.2192 6.16488 22.7052 6.29118 23.4322 6.69998Z" fill="#E9A55B"/>
<path d="M19.4599 8.90676C20.2471 9.46845 22.3839 10.3093 23.0266 10.4356C23.364 10.5021 23.7054 10.5453 24.0428 10.6085C24.2717 10.6483 24.5007 10.6982 24.7216 10.7647C24.8742 10.635 25.0349 10.5121 25.1996 10.3957C21.918 7.06546 22.8941 8.45474 20.5845 7.11864C20.5604 7.10202 20.5845 7.06878 20.6086 7.08208C22.5446 8.16226 22.408 7.25158 25.4084 10.2495C25.6253 10.1066 25.8382 9.97697 26.1113 9.83737C24.8582 7.64377 23.5006 6.89928 21.1268 6.15146C19.6205 5.6795 18.1103 5.1876 16.5318 4.92171C17.1463 6.28773 18.1224 7.94955 19.4599 8.90676Z" fill="#E9A55B"/>
<path d="M26.2519 9.76435C26.3483 9.71782 26.4447 9.67129 26.5411 9.62808C26.4367 9.32231 26.3202 9.01985 26.1876 8.72073C25.9025 8.55122 25.5892 8.38504 25.292 8.22218C25.6896 8.68749 26.039 9.2093 26.2519 9.76435Z" fill="#E9A55B"/>
<path d="M29.7141 8.89691V8.1358C29.6898 8.36513 29.6623 8.61772 29.6177 8.90023C29.6461 8.90023 29.6817 8.89691 29.7141 8.89691Z" fill="#E9A55B"/>
<path d="M27.5331 7.66384C27.6938 8.16571 27.979 8.63767 28.3445 9.05644C28.5734 9.01324 28.7783 8.97668 29.0353 8.94676C29.2201 7.38133 28.5855 5.72616 29.0715 4.29367C29.0795 4.26708 29.1317 4.27705 29.1237 4.30696C28.6216 5.82587 29.4771 7.13538 29.2884 8.9235C29.3245 8.92017 29.3607 8.91685 29.3968 8.91353C29.678 7.29824 29.6057 6.67339 29.7141 6.03526L29.7142 0.75738C29.6057 0.594521 29.4973 0.434987 29.3888 0.275452C28.6578 1.40549 26.774 5.28411 27.5331 7.66384Z" fill="#E9A55B"/>
<path d="M29.5174 20.4598C29.4652 20.4598 29.4089 20.4565 29.3567 20.4532C29.3567 20.4731 29.3567 20.4898 29.3567 20.5097C29.3607 20.8387 29.3688 21.1678 29.3688 21.4968C29.3888 26.1267 27.6296 27.3132 27.8425 27.0274C29.2121 25.2193 29.1559 22.7066 29.1157 20.4665C29.1157 20.4565 29.1157 20.4499 29.1157 20.4399C28.8265 20.42 28.5373 20.3934 28.2522 20.3502C28.22 20.4067 28.1879 20.4665 28.1558 20.523C28.2763 21.8558 28.0312 22.9758 27.0271 24.3385C26.8504 27.6422 26.7218 27.6389 26.8504 29.5766C27.5171 28.7457 28.0232 27.835 28.7221 27.0207C29.2282 26.4324 29.3768 26.3793 29.7102 26.0834V20.8321C29.666 20.6559 29.5736 20.4598 29.5174 20.4598Z" fill="#E9A55B"/>
<path d="M24.573 19.0507C19.1345 21.8226 19.6085 22.9692 17.544 23.8068C17.5159 23.8168 17.4918 23.7868 17.5199 23.7736C19.5844 22.8629 18.8855 21.6896 24.6372 18.8147C24.5569 18.7449 24.4806 18.6718 24.4043 18.602C24.0227 18.705 23.6291 18.7781 23.2355 18.8446C21.9943 19.8151 20.3395 19.9946 19.9097 20.0876C17.2508 22.0419 17.3713 23.5243 15.853 24.6011C17.2427 24.3053 18.6244 23.9331 19.9499 23.491C21.1669 20.5829 22.0546 20.8089 24.573 19.0507Z" fill="#E9A55B"/>
<path d="M25.6454 19.0107C25.5972 19.0008 25.553 19.0008 25.5088 19.0008C25.4807 18.9742 24.2838 19.619 23.9062 19.845C20.7291 21.7627 21.0384 21.4569 18.5843 27.3531C18.3433 27.9281 18.2067 28.5263 18.1585 29.1279C18.8976 27.7752 20.3596 26.911 22.1309 25.4852C24.8381 22.3443 24.5931 20.6493 25.794 19.0539C25.7458 19.034 25.6976 19.0207 25.6454 19.0107Z" fill="#E9A55B"/>
<path d="M23.8901 17.5882C23.0787 16.8171 16.9133 16.6842 12.969 20.6759C15.6642 19.6921 20.0382 20.4233 22.5927 18.9542C23.2997 18.5488 24.0146 17.7046 23.8901 17.5882Z" fill="#E9A55B"/>
<path d="M27.7822 20.2704C27.256 20.1674 26.758 20.0244 26.2961 19.8383C25.4486 22.4972 25.7177 23.5309 25.1313 24.8105C25.1152 24.8404 25.055 24.8304 25.071 24.7972C25.3361 24.1424 25.4486 23.2849 25.5008 22.5537C25.3964 22.7598 25.2598 22.9792 25.067 23.2284C24.8662 23.9896 24.577 25.6281 23.8098 26.6318C23.7857 26.6651 23.7295 26.6352 23.7496 26.6019C24.4203 25.4486 24.4043 24.734 24.8421 23.501C24.6774 23.6871 24.4806 23.8965 24.1954 24.1557C24.0749 25.3556 23.8781 25.9771 23.372 27.3996C24.5449 26.2962 25.7579 25.6248 26.7339 24.2887C27.7702 22.8761 27.9589 21.7095 27.7822 20.2704Z" fill="#E9A55B"/>
<path d="M25.8984 19.1138C25.8502 19.1736 25.798 19.2368 25.7538 19.3032C24.6733 20.8653 24.6613 22.7166 22.5526 25.1429C25.9104 22.4208 25.1352 22.5006 26.059 19.8948C26.2117 19.6323 26.1594 19.2899 25.8984 19.1138Z" fill="#E9A55B"/>
</svg>
