<svg width="86" height="42" viewBox="0 0 86 42" fill="none" xmlns="http://www.w3.org/2000/svg">
<path d="M75.6491 0.576153C74.4772 -0.526565 78.8028 0.353756 2.31389 0.0294303C1.97089 0.103561 -0.582553 1.25261 0.122502 1.62327C5.22938 4.33836 10.7936 6.06193 15.0144 6.66426C10.1838 9.50909 2.23767 17.2096 3.92408 17.1725C6.4013 17.1169 8.87852 17.2281 11.3367 17.0891C9.88846 18.8868 8.78324 20.9254 8.33544 23.1865C8.2878 23.4552 8.5641 23.7239 8.83088 23.5571C11.1938 22.1208 13.9282 21.5834 16.577 20.8142C15.9958 22.3247 15.4336 23.8444 14.9191 25.3734C14.6142 26.3 12.8992 31.8692 13.5567 31.8785C13.9854 31.8785 19.0256 29.7564 20.693 28.9039C20.1022 31.5078 19.9212 33.9542 19.6449 36.6415C19.6258 36.8546 19.8831 37.0214 20.0736 36.9565C22.8272 36.1133 25.2091 33.9171 31.0211 28.3201C31.4117 31.7488 32.5741 35.094 32.6122 38.5689C32.6122 38.9303 33.079 39.0137 33.2791 38.745C33.9461 37.8276 34.5654 36.8731 35.1275 35.8909C36.4995 39.6809 35.6992 39.6624 36.6329 39.7272C36.833 39.7458 36.9854 39.5882 37.0426 39.4214C38.9386 34.4638 41.5778 31.8599 43.169 27.7178C44.055 30.229 44.3885 32.6661 45.7129 34.8438C47.1325 37.1789 48.9809 39.1898 50.5911 41.3952C50.7816 41.6547 51.258 41.5064 51.1437 41.1728C50.1147 38.1519 50.7626 34.2136 51.3438 31.0816C53.5352 34.7696 56.7651 38.189 59.9473 40.5798C60.2332 40.7929 60.6238 40.5334 60.4523 40.1998C58.4134 36.2152 58.5563 29.4785 57.7845 24.4745C63.7299 30.4978 67.4457 29.775 70.4374 33.3982C70.99 34.0654 71.3616 33.704 71.2854 33.4445C70.285 30.0808 69.3608 26.7078 68.1031 23.4367C74.2866 25.4846 73.9436 25.6884 77.6595 26.7634C79.9461 27.4213 82.3948 27.7641 84.7767 27.7827C85.034 27.7827 85.0625 27.4398 84.8339 27.3657C83.1284 26.8097 81.6325 25.5865 80.3272 24.4189C78.8409 23.0845 79.2316 23.3903 72.4668 16.5238C71.6856 15.7362 70.9138 14.9485 70.1135 14.1887C73.0385 14.513 76.6686 15.3563 79.5174 16.0605C79.7365 16.1161 79.9557 15.8196 79.7556 15.6621C76.5352 13.2157 74.2295 9.82414 70.8662 7.54458C77.5451 7.60944 77.6881 8.26737 85.7009 7.80404C86.0248 7.78551 86.1011 7.42411 85.8533 7.24805C82.3376 4.70902 79.1363 3.86577 75.6491 0.576153ZM25.5045 0.659549C25.5045 0.733683 25.514 0.807818 25.514 0.881949C24.7041 0.780021 23.98 0.705882 23.3226 0.659549L25.5045 0.659549ZM0.779918 1.41014C1.23725 1.15995 1.70411 0.909748 2.16144 0.65955L17.3011 0.659549C19.1304 0.909747 20.9121 0.74295 25.5521 1.39161C25.5616 1.47501 25.5712 1.55841 25.5807 1.64181C20.4548 1.20628 16.7103 3.18005 12.3466 2.02173C12.2704 2.0032 12.2323 2.11439 12.3085 2.14219C16.4055 3.26344 21.1503 1.79933 25.6474 2.22559C25.7331 2.82792 25.8284 3.30051 25.9618 3.81944C24.7708 4.66269 23.4084 5.32061 21.9697 5.69128C15.1478 7.44265 4.02889 3.09665 0.779918 1.41014ZM4.55291 16.5887C4.5815 16.5516 4.61008 16.5146 4.63866 16.4868C5.08647 16.2829 5.52475 16.0883 6.36319 15.6343C9.20246 14.1145 12.2513 11.6311 14.9572 9.47202C14.9953 9.43495 14.9477 9.37009 14.9001 9.39788C12.0608 11.3902 9.70743 13.2435 6.22027 15.1431C5.97255 15.2821 5.72483 15.4119 5.46758 15.5416C7.54463 13.2435 9.85988 11.1307 12.318 9.24036C13.4995 8.33224 14.7476 7.50752 16.0625 6.79399C20.4643 7.22026 23.3988 6.12681 26.1047 4.3569C26.7526 4.6627 27.6959 4.81096 26.6573 5.93221C21.4456 9.11989 19.3495 12.5485 15.2145 13.9756C15.1287 14.0034 15.1668 14.1331 15.2526 14.1053C18.6445 12.984 20.4262 10.723 24.9328 7.63724C21.7696 11.5107 21.3599 15.6065 11.8226 16.4961C9.41207 16.7277 6.96344 16.6536 4.55291 16.5887ZM27.6006 7.97084C27.7244 8.19324 27.8578 8.42491 27.9912 8.63803C26.4001 9.13843 24.9042 9.93535 23.5608 10.8527C24.0277 10.167 24.5136 9.44422 24.99 8.7863C25.857 8.4805 26.724 8.21177 27.6006 7.97084ZM9.64074 22.3525C9.47877 22.4266 9.3168 22.51 9.15483 22.6027C9.69791 20.527 10.8603 18.6551 12.2895 17.015C15.2812 16.7462 17.5583 16.0235 19.2066 15.1524C18.0347 16.8296 17.6726 17.9509 16.8533 20.0915C14.4332 20.8142 11.9179 21.2776 9.64074 22.3525ZM14.1093 31.0908C14.8715 27.4398 16.2816 23.9556 17.6345 20.4899C19.7783 15.0134 21.922 11.8721 28.2008 8.99016C28.6105 9.62029 28.9726 10.1114 29.3823 10.6118C20.7787 17.5339 23.3988 17.2188 20.3023 21.6853C20.2547 21.7502 20.3595 21.8058 20.4071 21.7409C24.2373 16.4126 20.2547 18.6644 29.8015 11.0937C30.135 11.4736 30.4875 11.8442 30.8591 12.1964C30.6685 12.706 30.5351 13.2342 30.4113 13.7624C30.2398 14.5408 30.1159 15.3285 29.9158 16.1069C29.5538 17.5802 27.1432 22.51 25.5331 24.3355C22.7891 27.4027 18.0252 29.6545 14.1093 31.0908ZM20.3595 36.1596C20.6263 33.6021 20.8359 30.9889 21.4647 28.4869C26.2667 25.8552 27.4862 23.6405 28.9535 20.944C29.7253 19.5355 30.7447 17.469 31.1068 15.903C32.3454 13.9385 33.3268 14.1794 33.9747 14.5593C32.3168 18.9609 32.5645 24.8174 24.8089 30.8128C24.7422 30.8684 24.8375 30.9611 24.9042 30.9055C33.1076 24.7062 32.8599 19.6189 34.5558 14.93C34.6321 14.9763 34.7178 15.0134 34.794 15.0597C34.7274 16.7184 34.8131 18.4698 34.6321 20.2119C34.0223 21.6297 33.5078 23.1679 33.1934 24.6784C31.4784 27.4676 23.1892 35.1125 20.3595 36.1596ZM35.5848 15.4304C35.7945 15.5231 35.9945 15.6157 36.2042 15.6991C36.328 16.1717 36.2804 16.6536 36.1851 17.1354C36.0327 17.3949 35.8612 17.7007 35.5372 18.3123C35.5658 17.3486 35.5563 16.3941 35.5848 15.4304ZM31.688 27.6622C32.1263 27.2082 32.555 26.7448 32.9552 26.2537C32.717 28.5703 33.0695 30.3124 33.8603 32.5457C33.8317 32.8329 33.7936 36.0114 33.2791 37.355C33.0505 34.0839 31.9834 30.9148 31.688 27.6622ZM33.5364 37.1419C34.089 35.965 34.251 34.9272 34.3272 33.7874C34.5559 34.3712 34.613 34.5287 34.8036 35.0384C34.4129 35.7612 33.9842 36.4654 33.5364 37.1419ZM36.6329 38.05C35.6897 34.4453 33.4983 31.1279 33.6602 27.3194C33.8127 23.7147 36.5757 16.1347 39.4912 15.6621C35.8516 22.4822 34.7464 27.9217 35.1942 26.6522C36.2994 23.5571 38.1383 19.2482 40.0915 15.6621C40.8061 15.7455 41.5397 15.9957 42.1304 16.3848C44.3694 17.8119 43.512 24.0946 42.683 26.6151C41.3396 30.7202 38.2717 34.0468 36.6329 38.05ZM43.5024 26.7726C44.5886 23.3533 44.4552 20.1193 43.4834 16.8852C43.9121 16.8574 44.3313 16.8111 44.7506 16.7555C46.3703 21.4907 48.3139 34.2136 48.3139 34.2229C48.5998 36.1596 49.6097 37.8925 50.0671 39.7828C43.5786 31.7117 45.77 32.7866 43.5024 26.7726ZM49.8955 37.8554C46.4656 26.8097 47.1706 22.7973 45.4175 16.6443C46.2655 16.4868 47.0944 16.2644 47.9138 15.9771C48.0567 16.3015 48.1996 16.635 48.3425 16.9594C47.7709 21.4166 48.9428 26.6614 50.7816 30.0993C50.3053 32.3603 49.8193 35.5758 49.8955 37.8554ZM59.2709 39.2917C47.828 30.2012 48.2091 15.9679 50.4196 14.096C50.7531 13.818 53.1731 15.4582 54.3355 17.0891C58.5468 22.9733 56.4507 33.0739 59.2709 39.2917ZM70.5136 32.6383C67.4266 29.1356 63.1677 29.4136 57.5749 23.2791C57.3082 22.2876 56.8032 18.4605 54.0115 15.6065C53.8115 14.6891 53.6114 13.781 53.316 12.9099C53.5256 12.7338 53.7257 12.5578 53.9258 12.3724C62.1673 25.6514 65.5401 24.0297 68.1412 28.7927C68.1793 28.8576 68.2651 28.802 68.2365 28.7371C65.8355 23.9741 62.5484 25.0676 54.6023 12.5207C59.652 18.3308 59.0041 20.3787 67.3314 23.1865C68.5986 26.2444 69.6752 29.4321 70.5136 32.6383ZM83.5095 27.3193C81.7755 27.2174 80.0605 26.8931 78.4217 26.3371C61.529 20.6752 62.396 21.3888 56.8985 14.059C56.2506 13.1879 54.4022 10.4265 54.4784 10.3616C54.4689 10.2597 54.4784 10.1485 54.507 10.0465C54.5356 9.92607 54.5832 9.81488 54.6309 9.70368C59.2042 12.4744 64.0633 11.9091 73.0671 18.1548C77.1545 22.2506 79.6222 25.6143 83.5095 27.3193ZM72.0762 17.1818C65.1209 12.3076 59.814 12.289 55.3359 9.79635C55.1454 9.69442 54.9643 9.58322 54.7928 9.46275C55.2978 8.86043 56.2887 8.73996 57.0319 9.09209C64.5016 11.2234 64.2634 9.42569 72.0762 17.1818ZM69.618 7.52605C73.4482 9.78708 75.3728 12.5763 78.536 15.2821C74.4581 14.1146 72.6764 13.6605 69.2369 13.3825C68.4938 12.7246 67.8935 12.2612 67.36 11.8906C70.8948 12.9006 72.9432 12.8636 76.2494 14.4111C76.3446 14.4574 76.4209 14.3277 76.3351 14.2721C73.4577 12.5022 68.7605 11.835 66.5787 11.3717C65.8641 10.9269 65.2353 10.6118 64.6445 10.3709C66.7406 10.4913 69.1988 10.7508 71.0758 11.3624C71.1711 11.3902 71.2092 11.2512 71.1139 11.2234C67.4552 9.87048 64.4826 10.5006 56.8604 8.5361C57.3939 7.47971 57.8036 6.3214 58.099 5.10748C62.234 4.70902 65.5783 5.14455 69.618 7.52605ZM77.4689 2.94838C79.7937 4.56076 82.4138 5.72834 84.7958 7.26658C79.2411 7.56311 79.2411 7.26658 69.78 6.85886C65.8831 4.54223 62.6723 3.97696 58.8421 4.25496C58.6802 4.18083 58.5087 4.1067 58.3467 4.03257C58.461 3.38391 58.5468 2.71672 58.6039 2.04027C58.6325 2.04027 58.6516 2.04027 58.6802 2.04027C65.1019 1.9476 72.3049 1.81787 77.488 4.97775C78.2978 5.46888 74.8964 1.41014 61.6338 1.45647C60.6905 1.45647 59.7473 1.47501 58.804 1.48427C58.7468 1.48427 58.6992 1.48427 58.642 1.48427C58.6516 1.36381 58.6516 1.23408 58.6611 1.11361C58.6611 0.993146 59.2232 0.780015 59.7282 0.659547L74.8011 0.659547C75.63 1.42867 75.7825 1.7808 77.4689 2.94838Z" fill="#444444"/>
<path d="M34.3271 33.7966C34.2508 34.9364 34.0889 35.965 33.5363 37.1511C33.9841 36.4654 34.4128 35.7611 34.8034 35.0476C34.6129 34.538 34.5462 34.3804 34.3271 33.7966Z" fill="#E9A55B"/>
<path d="M44.7504 16.7555C44.3312 16.8111 43.9025 16.8574 43.4832 16.8852C44.4646 20.1193 44.598 23.3533 43.5023 26.7726C45.7604 32.7866 43.5785 31.7117 50.0669 39.7736C49.6096 37.8925 48.5901 36.1503 48.3138 34.2136C48.3138 34.2136 46.3702 21.4907 44.7504 16.7555Z" fill="#E9A55B"/>
<path d="M32.9552 26.2444C32.555 26.7355 32.1263 27.2081 31.688 27.6529C31.9833 30.9055 33.0505 34.0746 33.2791 37.3457C33.7936 36.0021 33.8317 32.8236 33.8603 32.5364C33.0695 30.3124 32.717 28.561 32.9552 26.2444Z" fill="#E9A55B"/>
<path d="M36.2042 15.6991C35.9946 15.6157 35.7945 15.523 35.5849 15.4304C35.5563 16.3941 35.5658 17.3485 35.5372 18.3123C35.8612 17.7007 36.0327 17.3949 36.1851 17.1354C36.2709 16.6535 36.328 16.1624 36.2042 15.6991Z" fill="#E9A55B"/>
<path d="M42.1399 16.3664C41.5396 15.9864 40.8155 15.727 40.1009 15.6436C38.1478 19.2297 36.3089 23.5386 35.2037 26.6337C34.7463 27.9124 35.8516 22.4637 39.5007 15.6436C36.5852 16.1162 33.8222 23.6962 33.6697 27.3009C33.5077 31.1187 35.6991 34.4268 36.6424 38.0315C38.2811 34.0284 41.3396 30.7109 42.702 26.5873C43.5214 24.0761 44.3789 17.7934 42.1399 16.3664Z" fill="#E9A55B"/>
<path d="M48.3521 16.9686C48.2091 16.6443 48.0662 16.3107 47.9233 15.9864C47.1039 16.2736 46.2655 16.496 45.427 16.6535C47.1801 22.8065 46.4751 26.8189 49.9051 37.8646C49.8193 35.5758 50.3052 32.3603 50.8007 30.1085C48.9523 26.6707 47.7804 21.4258 48.3521 16.9686Z" fill="#E9A55B"/>
<path d="M34.6416 20.2026C34.8226 18.4512 34.7368 16.7091 34.8035 15.0504C34.7273 15.0133 34.6416 14.967 34.5653 14.9207C32.8694 19.6095 33.1171 24.6968 24.9137 30.8961C24.847 30.9517 24.7517 30.8591 24.8184 30.8035C32.574 24.808 32.3263 18.9516 33.9841 14.55C33.3362 14.1701 32.3549 13.9291 31.1163 15.8936C30.7447 17.4597 29.7252 19.5261 28.963 20.9346C27.4957 23.6312 26.2762 25.8459 21.4742 28.4776C20.8358 30.9795 20.6262 33.602 20.369 36.1503C23.1892 35.1032 31.4879 27.4583 33.2029 24.6598C33.5077 23.1586 34.0222 21.6204 34.6416 20.2026Z" fill="#E9A55B"/>
<path d="M24.9328 7.64655C20.4261 10.7323 18.6445 12.9933 15.2526 14.1146C15.1668 14.1424 15.1287 14.0126 15.2145 13.9848C19.3495 12.5578 21.4551 9.12919 26.6573 5.9415C27.6958 4.82025 26.7526 4.66272 26.1047 4.36619C23.3988 6.1361 20.4643 7.22955 16.0624 6.80329C14.7571 7.51681 13.4995 8.3508 12.318 9.24965C9.85033 11.14 7.54461 13.2528 5.46755 15.5509C5.7248 15.4212 5.97252 15.2914 6.22025 15.1524C9.70741 13.2528 12.0512 11.3995 14.9 9.40719C14.9382 9.37939 14.9953 9.44425 14.9572 9.48132C12.2513 11.6497 9.20244 14.1331 6.36316 15.6436C5.52472 16.0884 5.08644 16.283 4.63864 16.4961C4.61005 16.5331 4.58147 16.5609 4.55289 16.598C6.96341 16.6629 9.41205 16.737 11.8226 16.5146C21.3599 15.6158 21.7696 11.52 24.9328 7.64655Z" fill="#E9A55B"/>
<path d="M19.2065 15.1524C17.5582 16.0234 15.2811 16.7462 12.2894 17.0149C10.8602 18.6459 9.69784 20.5177 9.15475 22.6027C9.31673 22.5193 9.4787 22.4359 9.64067 22.3525C11.9178 21.2775 14.4427 20.8142 16.8532 20.0914C17.6726 17.9509 18.0346 16.8296 19.2065 15.1524Z" fill="#E9A55B"/>
<path d="M25.533 24.317C27.1432 22.5007 29.5537 17.5709 29.9158 16.0883C30.1063 15.3099 30.2302 14.5222 30.4112 13.7439C30.5256 13.2157 30.6685 12.6875 30.859 12.1778C30.4875 11.8257 30.1349 11.455 29.8015 11.0751C20.2546 18.6459 24.2372 16.3941 20.4071 21.7223C20.3594 21.7779 20.2642 21.7223 20.3023 21.6667C23.3988 17.2003 20.7882 17.5153 29.3822 10.5932C28.9725 10.0928 28.601 9.60172 28.2008 8.9716C21.9125 11.8628 19.7782 14.9948 17.6345 20.4714C16.2816 23.9463 14.8714 27.4305 14.1092 31.0723C18.0251 29.6545 22.789 27.4027 25.533 24.317Z" fill="#E9A55B"/>
<path d="M27.9911 8.64724C27.8577 8.42484 27.7243 8.20244 27.6004 7.98005C26.7239 8.22098 25.8569 8.4897 24.9994 8.7955C24.5134 9.45342 24.0371 10.1762 23.5702 10.8619C24.9041 9.94455 26.3999 9.13836 27.9911 8.64724Z" fill="#E9A55B"/>
<path d="M25.5045 0.656081L23.3226 0.656081C23.98 0.712519 24.7042 0.778366 25.514 0.881836C25.514 0.815991 25.5045 0.731332 25.5045 0.656081Z" fill="#E9A55B"/>
<path d="M21.9696 5.69126C23.4083 5.3206 24.7613 4.66268 25.9618 3.81943C25.8379 3.29124 25.7331 2.81864 25.6473 2.22559C21.1598 1.79933 16.4149 3.26344 12.3085 2.14219C12.2322 2.12365 12.2608 2.00319 12.3466 2.02172C16.7008 3.18004 20.4547 1.20627 25.5806 1.6418C25.5711 1.5584 25.5616 1.475 25.5521 1.3916C20.9216 0.742942 19.1304 0.909737 17.301 0.659541L2.17092 0.659542C1.70406 0.909738 1.24673 1.15994 0.789398 1.41013C4.02884 3.09664 15.1477 7.44264 21.9696 5.69126Z" fill="#E9A55B"/>
<path d="M58.6515 1.11357C58.6515 1.23403 58.642 1.36376 58.6325 1.48423C58.6897 1.48423 58.7373 1.48423 58.7945 1.48423C59.7377 1.47496 60.681 1.45643 61.6242 1.45643C74.8964 1.41009 78.2978 5.46883 77.4784 4.97771C72.2953 1.81782 65.0923 1.94755 58.6706 2.04022C58.642 2.04022 58.623 2.04022 58.5944 2.04022C58.5372 2.70741 58.461 3.3746 58.3371 4.03252C58.4991 4.10665 58.6706 4.18078 58.8326 4.25491C62.6532 3.97692 65.8641 4.54218 69.7704 6.85881C79.241 7.26654 79.2315 7.56306 84.7862 7.26653C82.4043 5.72829 79.7937 4.56071 77.4594 2.94834C75.7729 1.78075 75.6205 1.43789 74.7725 0.668773L59.7187 0.668774C59.2137 0.770705 58.6515 0.983834 58.6515 1.11357Z" fill="#E9A55B"/>
<path d="M54.6117 12.5207C62.5579 25.0676 65.845 23.9741 68.246 28.7371C68.2746 28.802 68.1888 28.8576 68.1507 28.7927C65.5401 24.0297 62.1768 25.6421 53.9353 12.3724C53.7352 12.5577 53.5256 12.7338 53.3255 12.9099C53.6209 13.7902 53.8305 14.6983 54.021 15.6064C56.8031 18.4698 57.3176 22.2876 57.5844 23.2791C63.1867 29.4136 67.4361 29.1356 70.5231 32.6383C69.6751 29.4321 68.608 26.2444 67.3408 23.1864C59.0041 20.3787 59.6519 18.3308 54.6117 12.5207Z" fill="#E9A55B"/>
<path d="M54.4974 10.0465C54.4688 10.1577 54.4688 10.2597 54.4688 10.3616C54.3926 10.4265 56.2409 13.1879 56.8888 14.0589C62.3864 21.3888 61.5098 20.6752 78.4121 26.3371C80.0604 26.8931 81.7754 27.2081 83.4999 27.3193C79.6221 25.6143 77.1449 22.2413 73.0575 18.1547C64.0537 11.9091 59.1946 12.4744 54.6212 9.70367C54.5641 9.81487 54.526 9.92606 54.4974 10.0465Z" fill="#E9A55B"/>
<path d="M50.4194 14.0961C48.209 15.9679 47.8279 30.192 59.2707 39.2917C56.4505 33.0739 58.5466 22.9827 54.3354 17.0891C53.173 15.4582 50.7529 13.8088 50.4194 14.0961Z" fill="#E9A55B"/>
<path d="M58.1085 5.11674C57.8131 6.33065 57.4034 7.4797 56.8699 8.54535C64.4921 10.5006 67.4552 9.87973 71.1234 11.2326C71.2092 11.2697 71.1806 11.4087 71.0853 11.3716C69.2083 10.7601 66.7502 10.5006 64.6541 10.3801C65.2448 10.6211 65.8736 10.9361 66.5882 11.3809C68.7701 11.8442 73.4672 12.5114 76.3446 14.2813C76.4399 14.3369 76.3542 14.4667 76.2589 14.4203C72.9527 12.8728 70.9043 12.9099 67.3695 11.8998C67.903 12.2798 68.5033 12.7338 69.2464 13.3917C72.686 13.6697 74.4677 14.1238 78.5455 15.2914C75.3823 12.5856 73.4577 9.78706 69.6276 7.5353C65.5783 5.14453 62.234 4.70901 58.1085 5.11674Z" fill="#E9A55B"/>
<path d="M54.7928 9.46274C54.9643 9.57394 55.1453 9.69441 55.3359 9.79634C59.8139 12.289 65.1209 12.3168 72.0762 17.1818C64.2729 9.43495 64.5016 11.2234 57.0318 9.09208C56.2791 8.73995 55.2978 8.86042 54.7928 9.46274Z" fill="#E9A55B"/>
</svg>
