<svg width="19" height="19" viewBox="0 0 19 19" fill="none" xmlns="http://www.w3.org/2000/svg">
<path d="M9.5 17.5353C8.37847 17.5353 7.32951 17.3242 6.35313 16.902C5.37674 16.4798 4.5257 15.9058 3.8 15.1801C3.07431 14.4544 2.50365 13.6001 2.08802 12.6171C1.6724 11.6341 1.46458 10.5818 1.46458 9.46031C1.46458 8.33878 1.6724 7.28982 2.08802 6.31344C2.50365 5.33705 3.07431 4.4893 3.8 3.77021C4.5257 3.05111 5.37674 2.48705 6.35313 2.07802C7.32951 1.66899 8.37847 1.46448 9.5 1.46448C10.6215 1.46448 11.6705 1.66899 12.6469 2.07802C13.6233 2.48705 14.4743 3.05111 15.2 3.77021C15.9257 4.4893 16.4964 5.33705 16.912 6.31344C17.3276 7.28982 17.5354 8.33878 17.5354 9.46031C17.5354 10.5818 17.3276 11.6341 16.912 12.6171C16.4964 13.6001 15.9257 14.4544 15.2 15.1801C14.4743 15.9058 13.6233 16.4798 12.6469 16.902C11.6705 17.3242 10.6215 17.5353 9.5 17.5353ZM9.5 16.2291C9.94861 15.7541 10.328 15.2131 10.638 14.6061C10.9481 13.9992 11.2021 13.2735 11.4 12.4291H7.61979C7.80452 13.2207 8.04861 13.9299 8.35208 14.5567C8.65556 15.1834 9.0382 15.7409 9.5 16.2291ZM7.81771 15.9916C7.48785 15.5034 7.20747 14.969 6.97656 14.3884C6.74566 13.8079 6.55104 13.1548 6.39271 12.4291H3.44375C3.93195 13.3659 4.5059 14.0982 5.16563 14.6259C5.82535 15.1537 6.70938 15.6089 7.81771 15.9916ZM11.1823 15.9718C12.1323 15.6683 12.9833 15.2164 13.7354 14.616C14.4875 14.0157 15.0944 13.2867 15.5563 12.4291H12.6271C12.4556 13.1416 12.2543 13.7881 12.0234 14.3686C11.7925 14.9492 11.5122 15.4836 11.1823 15.9718ZM3.04792 11.2614H6.175C6.13542 10.9051 6.11233 10.5851 6.10573 10.3015C6.09913 10.0178 6.09583 9.73739 6.09583 9.46031C6.09583 9.13045 6.10243 8.83687 6.11563 8.57958C6.12882 8.32229 6.15521 8.03531 6.19479 7.71864H3.04792C2.95556 8.03531 2.89288 8.31899 2.8599 8.56969C2.82691 8.82038 2.81042 9.11726 2.81042 9.46031C2.81042 9.80337 2.82691 10.1101 2.8599 10.3806C2.89288 10.6511 2.95556 10.9447 3.04792 11.2614ZM7.40208 11.2614H11.6177C11.6705 10.8523 11.7035 10.5192 11.7167 10.2619C11.7299 10.0046 11.7365 9.73739 11.7365 9.46031C11.7365 9.19642 11.7299 8.94243 11.7167 8.69833C11.7035 8.45423 11.6705 8.12767 11.6177 7.71864H7.40208C7.34931 8.12767 7.31632 8.45423 7.30313 8.69833C7.28993 8.94243 7.28333 9.19642 7.28333 9.46031C7.28333 9.73739 7.28993 10.0046 7.30313 10.2619C7.31632 10.5192 7.34931 10.8523 7.40208 11.2614ZM12.8052 11.2614H15.9521C16.0313 10.9447 16.0906 10.6511 16.1302 10.3806C16.1698 10.1101 16.1896 9.80337 16.1896 9.46031C16.1896 9.11726 16.1698 8.82038 16.1302 8.56969C16.0906 8.31899 16.0313 8.03531 15.9521 7.71864H12.825C12.8646 8.19364 12.891 8.54989 12.9042 8.78739C12.9174 9.02489 12.924 9.2492 12.924 9.46031C12.924 9.75059 12.9141 10.0244 12.8943 10.2817C12.8745 10.539 12.8448 10.8655 12.8052 11.2614ZM12.6073 6.55094H15.5563C15.1208 5.64052 14.5271 4.88514 13.775 4.28479C13.0229 3.68444 12.1521 3.25892 11.1625 3.00823C11.4924 3.49642 11.7727 4.0209 12.0036 4.58167C12.2345 5.14243 12.4358 5.79885 12.6073 6.55094ZM7.61979 6.55094H11.4198C11.2747 5.85163 11.0306 5.17542 10.6875 4.52229C10.3444 3.86917 9.94861 3.29851 9.5 2.81031C9.07778 3.16656 8.72483 3.63167 8.44115 4.20562C8.15747 4.77958 7.88368 5.56135 7.61979 6.55094ZM3.44375 6.55094H6.4125C6.55764 5.83844 6.73906 5.2051 6.95677 4.65094C7.17448 4.09677 7.45486 3.5558 7.79792 3.02802C6.82153 3.27871 5.96389 3.69764 5.225 4.28479C4.48611 4.87194 3.89236 5.62732 3.44375 6.55094Z" fill="#E9A55B"/>
</svg>
