<?xml version="1.0" standalone="no"?>
<!DOCTYPE svg PUBLIC "-//W3C//DTD SVG 20010904//EN"
 "http://www.w3.org/TR/2001/REC-SVG-20010904/DTD/svg10.dtd">
<svg version="1.0" xmlns="http://www.w3.org/2000/svg"
 width="1575.000000pt" height="712.000000pt" viewBox="0 0 1575.000000 712.000000"
 preserveAspectRatio="xMidYMid meet">

<g transform="translate(0.000000,712.000000) scale(0.100000,-0.100000)"
fill="#000000" stroke="none">
<path d="M15065 6371 c-16 -10 -39 -28 -49 -40 -11 -11 -27 -21 -37 -21 -29 0
-47 -39 -59 -130 -33 -245 -149 -553 -326 -868 -364 -646 -756 -1171 -1249
-1671 -356 -361 -670 -622 -988 -821 -101 -63 -256 -150 -269 -150 -3 0 -11
14 -17 30 -9 28 3 53 191 398 214 391 309 562 501 897 66 116 145 262 176 324
49 101 56 122 56 176 0 78 -20 109 -92 142 -139 64 -236 34 -1393 -425 -957
-380 -1483 -570 -2145 -778 -2243 -704 -4952 -1086 -6667 -939 -679 59 -1183
168 -1623 352 -134 55 -144 58 -225 58 -71 0 -93 -4 -134 -25 -58 -29 -71 -47
-62 -83 13 -54 89 -77 531 -167 844 -171 1327 -221 2140 -221 906 0 1812 81
2925 262 1401 228 2639 543 3970 1011 269 95 571 207 1402 522 565 213 895
316 1019 316 l46 0 -12 -77 c-44 -269 -206 -649 -612 -1430 l-94 -182 -34 15
c-45 19 -110 18 -144 -2 -37 -22 -76 -87 -96 -159 -22 -79 -9 -135 44 -186 33
-30 36 -38 26 -55 -31 -51 -381 -705 -439 -821 -59 -119 -66 -139 -66 -192 0
-75 6 -91 37 -91 46 0 113 83 172 215 130 291 417 862 428 852 10 -11 66 -173
109 -317 68 -231 113 -367 149 -446 68 -149 152 -251 249 -302 46 -24 62 -27
151 -27 95 0 103 2 163 34 39 22 85 58 118 95 58 65 139 211 173 313 22 65 28
153 11 153 -5 0 -37 -57 -71 -127 -90 -188 -137 -249 -218 -286 -113 -50 -253
27 -352 193 -80 134 -150 344 -218 648 -23 101 -41 187 -41 192 0 5 30 25 68
46 97 54 298 188 442 294 271 201 514 413 790 690 569 569 1084 1265 1487
2010 118 219 288 538 316 595 25 49 34 134 17 164 -29 56 -119 77 -175 42z
m-3268 -3776 c-5 -14 -37 -19 -48 -8 -5 5 -6 24 -3 43 l7 33 24 -29 c12 -16
21 -33 20 -39z"/>
<path d="M13614 1761 c-120 -73 -98 -252 36 -292 56 -17 106 -4 153 40 38 36
41 42 44 102 5 74 -15 116 -69 149 -43 26 -122 27 -164 1z"/>
</g>
</svg>
