<?xml version="1.0" standalone="no"?>
<!DOCTYPE svg PUBLIC "-//W3C//DTD SVG 20010904//EN"
 "http://www.w3.org/TR/2001/REC-SVG-20010904/DTD/svg10.dtd">
<svg version="1.0" xmlns="http://www.w3.org/2000/svg"
 width="5315.000000pt" height="5315.000000pt" viewBox="0 0 5315.000000 5315.000000"
 preserveAspectRatio="xMidYMid meet">

<g transform="translate(0.000000,5315.000000) scale(0.100000,-0.100000)"
fill="#000000" stroke="none">
<path d="M42308 47089 c-40 -4 -79 -15 -95 -27 -16 -10 -36 -22 -46 -25 -15
-6 -248 -143 -317 -188 -8 -5 -28 -16 -45 -24 -16 -7 -45 -25 -64 -39 -59 -44
-83 -35 -143 53 -13 18 -43 48 -66 65 -39 27 -52 31 -110 31 -120 0 -248 -82
-340 -218 -35 -52 -112 -207 -112 -225 0 -6 -13 -51 -29 -99 -16 -49 -35 -131
-41 -183 -7 -52 -22 -158 -35 -235 -13 -77 -26 -165 -30 -195 -4 -30 -17 -98
-30 -150 -13 -52 -30 -129 -38 -170 -17 -88 -51 -226 -78 -325 -11 -38 -27
-99 -34 -135 -8 -36 -25 -101 -39 -145 -35 -116 -66 -221 -83 -290 -8 -33 -25
-91 -38 -130 -13 -38 -40 -124 -60 -190 -20 -66 -43 -140 -52 -165 -8 -25 -23
-74 -34 -110 -10 -36 -28 -83 -38 -105 -10 -22 -22 -56 -25 -75 -4 -19 -18
-60 -31 -90 -13 -30 -30 -75 -38 -100 -34 -103 -69 -197 -86 -230 -10 -19 -24
-57 -31 -85 -8 -27 -19 -59 -27 -71 -7 -11 -22 -49 -34 -85 -11 -35 -25 -69
-30 -75 -5 -6 -18 -35 -28 -65 -22 -62 -64 -166 -90 -224 -11 -22 -24 -58 -31
-80 -7 -22 -24 -60 -37 -84 -12 -24 -23 -50 -23 -58 0 -8 -11 -34 -25 -59 -14
-25 -25 -49 -25 -55 0 -6 -16 -43 -35 -83 -19 -40 -35 -79 -35 -86 0 -7 -9
-27 -20 -45 -11 -18 -26 -50 -34 -71 -13 -39 -54 -131 -102 -229 -57 -119
-134 -287 -134 -292 0 -4 -16 -41 -36 -82 -34 -73 -43 -90 -63 -128 -11 -20
-286 -574 -314 -631 -10 -20 -22 -44 -28 -52 -5 -8 -20 -37 -34 -65 -13 -27
-31 -61 -39 -75 -21 -36 -205 -377 -217 -403 -6 -12 -26 -49 -44 -82 -19 -33
-45 -82 -59 -110 -41 -80 -127 -238 -144 -265 -9 -14 -27 -45 -39 -70 -13 -25
-36 -67 -51 -95 -16 -27 -42 -75 -59 -105 -29 -54 -58 -107 -115 -205 -15 -27
-38 -70 -51 -95 -12 -25 -31 -58 -42 -75 -12 -16 -29 -46 -39 -65 -9 -19 -30
-57 -46 -85 -16 -27 -43 -75 -60 -105 -32 -57 -51 -91 -115 -200 -21 -36 -48
-83 -60 -105 -13 -22 -39 -67 -59 -100 -19 -33 -44 -76 -53 -95 -10 -19 -27
-49 -39 -65 -18 -26 -75 -124 -135 -236 -9 -16 -29 -47 -43 -69 -14 -22 -26
-42 -26 -45 0 -4 -36 -65 -77 -130 -13 -21 -67 -108 -83 -135 -5 -8 -33 -55
-63 -105 -29 -49 -60 -101 -67 -115 -18 -31 -41 -68 -116 -190 -32 -52 -66
-107 -74 -122 -8 -14 -22 -37 -31 -50 -9 -12 -42 -66 -74 -118 -56 -91 -89
-144 -187 -295 -25 -38 -62 -99 -84 -135 -21 -36 -48 -77 -59 -92 -11 -14 -31
-45 -45 -69 -14 -23 -42 -69 -62 -101 -21 -32 -38 -62 -38 -67 0 -5 -7 -14
-15 -21 -8 -7 -30 -37 -47 -67 -18 -30 -37 -62 -43 -71 -5 -10 -23 -37 -40
-62 -16 -25 -34 -52 -40 -61 -5 -9 -23 -36 -39 -60 -16 -24 -49 -75 -74 -114
-91 -143 -137 -213 -207 -320 -40 -60 -78 -120 -86 -132 -14 -20 -53 -80 -155
-231 -27 -41 -54 -82 -59 -92 -10 -16 -36 -56 -76 -116 -19 -29 -178 -263
-199 -294 -10 -14 -38 -56 -64 -95 -25 -38 -67 -102 -93 -141 -27 -38 -52 -77
-58 -85 -31 -47 -133 -195 -186 -269 -33 -47 -86 -123 -117 -169 -31 -45 -72
-104 -90 -130 -17 -25 -47 -68 -66 -96 -19 -27 -55 -79 -81 -115 -25 -36 -61
-87 -80 -115 -19 -27 -48 -68 -65 -90 -27 -36 -65 -90 -117 -165 -10 -14 -38
-52 -63 -85 -25 -33 -53 -71 -63 -85 -55 -79 -138 -195 -177 -246 -25 -32 -53
-70 -62 -84 -10 -14 -30 -42 -45 -62 -15 -21 -48 -65 -73 -98 -25 -34 -67 -90
-95 -126 -27 -36 -57 -76 -65 -88 -8 -12 -49 -66 -90 -121 -41 -55 -82 -109
-90 -121 -19 -28 -133 -177 -140 -184 -3 -3 -32 -41 -65 -85 -32 -44 -63 -84
-67 -90 -5 -5 -66 -84 -135 -175 -287 -375 -310 -404 -461 -593 -62 -78 -137
-173 -167 -212 -81 -102 -308 -387 -395 -493 -215 -265 -807 -969 -865 -1028
-5 -6 -35 -39 -66 -75 -31 -35 -105 -120 -165 -188 -60 -68 -145 -165 -189
-215 -44 -51 -123 -139 -175 -196 -151 -167 -162 -179 -265 -295 -55 -60 -126
-139 -160 -174 -33 -35 -67 -72 -75 -81 -214 -234 -234 -255 -476 -510 -60
-63 -154 -162 -209 -220 -126 -133 -745 -752 -885 -885 -191 -182 -572 -533
-785 -724 -88 -79 -178 -160 -200 -180 -22 -21 -103 -91 -180 -156 -77 -66
-194 -167 -260 -225 -141 -123 -420 -353 -477 -393 -21 -15 -43 -25 -48 -22
-4 3 29 80 75 173 46 92 89 178 94 192 6 14 15 32 21 40 6 8 19 35 30 60 10
25 26 56 34 70 8 14 56 111 106 215 102 212 156 325 179 370 8 17 18 37 22 45
3 8 34 71 67 140 33 69 77 161 97 205 20 44 42 89 48 100 10 19 19 38 74 155
15 30 31 64 36 75 27 53 67 136 91 190 28 61 34 74 53 110 6 11 24 49 41 85
16 36 44 97 62 135 17 39 47 102 66 141 19 39 34 76 34 82 0 7 11 33 25 59 14
27 43 89 66 138 22 50 51 113 65 140 13 28 24 56 24 62 0 7 11 29 25 49 14 20
25 44 25 53 0 9 11 35 24 58 14 23 27 53 31 65 4 13 19 50 35 83 56 118 90
194 90 201 0 3 13 32 29 63 15 31 31 67 35 81 8 25 23 59 90 202 20 42 36 81
36 87 0 6 11 32 24 58 33 63 96 210 96 222 0 5 11 29 25 52 14 24 25 49 25 56
0 6 13 40 29 75 16 35 34 80 41 100 6 21 15 40 20 43 5 3 16 29 25 58 10 28
26 68 36 87 20 39 62 139 89 215 10 28 28 68 39 90 12 21 21 45 21 52 0 8 11
35 24 61 13 26 29 65 35 87 7 22 23 61 37 86 13 26 24 54 24 64 0 10 11 38 24
64 14 25 30 64 37 86 6 22 22 61 35 87 13 26 24 53 24 60 0 8 13 40 30 73 16
33 30 67 30 75 0 8 14 42 30 75 16 33 30 66 30 72 0 7 11 36 24 65 33 71 74
172 96 233 9 28 27 68 39 90 11 22 21 47 21 55 0 8 11 35 24 60 13 25 29 63
35 85 7 22 23 61 37 86 13 26 24 54 24 62 0 9 9 31 20 50 11 18 29 60 40 92
11 32 24 63 29 69 4 6 18 36 29 66 27 74 69 174 98 237 13 28 24 57 24 64 0 6
11 32 24 58 24 48 53 115 92 216 12 33 32 78 43 100 12 21 21 45 21 53 0 7 13
39 29 70 17 31 33 71 37 87 4 17 13 37 21 47 8 9 21 38 29 64 8 26 23 63 34
81 11 19 20 39 20 44 0 5 16 44 35 85 19 41 35 78 35 83 0 5 11 29 25 52 14
24 25 50 25 57 0 8 15 46 34 85 19 40 49 106 66 147 18 41 45 102 61 136 16
33 29 65 29 71 0 6 13 37 29 69 16 32 44 91 61 129 17 39 42 93 55 120 13 28
39 84 58 125 19 41 62 132 96 201 34 69 61 131 61 136 0 6 8 21 19 34 10 13
24 42 32 64 7 22 18 47 24 55 7 8 31 56 54 105 24 50 48 99 54 110 6 11 39 74
73 140 108 213 283 546 294 560 5 6 20 33 35 60 15 28 41 75 58 105 16 30 40
74 52 97 12 23 31 54 42 70 10 15 24 39 31 53 7 14 30 52 52 85 21 33 42 67
46 75 6 13 32 55 90 144 29 45 70 116 99 171 14 28 30 57 35 65 18 30 70 147
96 215 26 69 41 121 83 279 25 96 37 272 23 341 -18 88 -54 199 -73 227 -11
14 -19 31 -19 37 0 20 -134 147 -180 171 -25 13 -58 30 -75 39 -22 12 -58 16
-135 16 -98 0 -108 -2 -155 -29 -27 -17 -61 -38 -74 -48 -31 -24 -44 -23 -107
8 -48 23 -63 26 -186 26 -131 1 -134 1 -221 -35 -109 -45 -211 -111 -296 -192
-179 -169 -283 -363 -370 -690 -17 -60 -35 -147 -41 -192 -6 -45 -21 -124 -34
-175 -13 -51 -27 -119 -31 -151 -4 -32 -15 -85 -25 -116 -11 -31 -26 -97 -35
-147 -8 -49 -24 -116 -34 -149 -11 -33 -22 -82 -26 -109 -4 -27 -20 -92 -36
-144 -16 -52 -29 -105 -29 -119 0 -13 -13 -63 -29 -111 -15 -48 -31 -109 -35
-136 -8 -53 -42 -117 -111 -211 -25 -33 -62 -84 -82 -113 -45 -62 -314 -424
-372 -499 -23 -29 -60 -78 -83 -108 -24 -31 -68 -86 -98 -124 -30 -38 -77 -98
-105 -133 -27 -34 -90 -112 -140 -173 -49 -60 -95 -117 -102 -125 -43 -54
-183 -224 -223 -270 -26 -30 -107 -125 -180 -210 -218 -255 -426 -480 -725
-789 -326 -337 -827 -827 -1089 -1066 -55 -49 -104 -95 -110 -100 -6 -6 -49
-45 -96 -86 -74 -66 -147 -129 -405 -354 -133 -116 -460 -381 -640 -519 -55
-43 -125 -96 -155 -119 -30 -23 -64 -49 -76 -57 -12 -8 -91 -67 -176 -131
-132 -100 -267 -198 -342 -249 -11 -8 -61 -44 -111 -80 -49 -36 -121 -87 -160
-112 -38 -26 -126 -86 -195 -133 -69 -47 -168 -114 -220 -149 -52 -34 -108
-71 -124 -82 -54 -35 -91 -59 -125 -79 -18 -11 -46 -30 -61 -42 -15 -13 -32
-23 -37 -23 -5 0 -27 -13 -49 -30 -21 -16 -43 -30 -47 -30 -5 0 -23 -11 -41
-25 -18 -14 -37 -25 -43 -25 -6 0 -21 -9 -34 -19 -25 -20 -62 -43 -139 -86
-25 -14 -83 -48 -130 -76 -47 -28 -114 -67 -150 -87 -36 -20 -87 -48 -115 -64
-27 -16 -68 -37 -90 -48 -22 -11 -47 -24 -55 -30 -8 -5 -34 -18 -57 -30 -24
-11 -62 -29 -85 -40 -24 -12 -50 -25 -58 -30 -8 -5 -49 -25 -90 -45 -181 -85
-244 -115 -275 -132 -52 -27 -153 -72 -175 -78 -14 -4 -32 -13 -40 -20 -8 -7
-26 -16 -40 -20 -28 -8 -111 -45 -183 -81 -26 -13 -53 -24 -60 -24 -7 0 -32
-11 -57 -24 -25 -13 -56 -27 -70 -31 -14 -4 -38 -13 -55 -21 -67 -30 -182 -76
-215 -86 -19 -5 -51 -18 -70 -28 -19 -10 -55 -25 -80 -33 -25 -9 -83 -30 -130
-47 -47 -17 -112 -40 -145 -51 -33 -10 -72 -26 -87 -34 -14 -8 -37 -15 -50
-15 -12 0 -43 -10 -68 -21 -25 -11 -74 -28 -110 -38 -36 -10 -85 -25 -110 -34
-122 -41 -186 -60 -238 -72 -31 -7 -77 -19 -102 -28 -48 -17 -136 -39 -265
-67 -44 -9 -102 -24 -130 -32 -27 -9 -72 -19 -100 -23 -27 -4 -77 -15 -110
-25 -33 -10 -92 -24 -132 -29 -39 -6 -84 -16 -100 -22 -15 -6 -66 -17 -113
-24 -96 -15 -264 -48 -390 -76 -47 -10 -116 -21 -155 -25 -38 -3 -92 -12 -120
-20 -27 -7 -93 -18 -145 -25 -52 -6 -125 -17 -162 -25 -37 -7 -118 -18 -180
-24 -62 -6 -164 -20 -227 -30 -62 -11 -139 -20 -170 -20 -31 0 -137 -9 -236
-20 -142 -16 -285 -22 -680 -28 -604 -9 -892 -1 -1350 38 -66 5 -198 14 -293
21 -94 6 -211 17 -260 24 -48 8 -148 22 -222 30 -74 9 -180 26 -235 37 -55 10
-140 26 -190 34 -49 9 -130 26 -180 39 -49 13 -124 29 -165 36 -41 6 -93 18
-115 26 -22 8 -71 21 -110 29 -38 8 -106 25 -150 38 -44 13 -105 29 -135 36
-30 7 -64 19 -75 26 -11 7 -47 17 -80 24 -33 6 -87 22 -120 35 -33 13 -76 26
-95 29 -19 4 -53 15 -75 25 -22 11 -60 25 -85 31 -24 7 -66 23 -92 36 -26 13
-55 24 -65 24 -10 0 -38 11 -63 24 -25 13 -56 27 -70 30 -27 8 -77 31 -271
125 -69 34 -130 61 -135 61 -5 0 -25 11 -44 24 -19 12 -52 28 -72 35 -20 7
-47 20 -60 30 -13 10 -41 24 -63 31 -22 7 -47 18 -55 25 -8 7 -55 31 -105 54
-49 23 -101 49 -115 57 -14 8 -41 22 -60 30 -19 8 -48 22 -65 31 -16 9 -37 20
-45 23 -102 47 -198 93 -210 101 -8 5 -31 16 -50 25 -19 8 -80 37 -135 63 -55
27 -145 69 -200 95 -55 26 -107 51 -115 56 -8 5 -62 33 -120 63 -195 101 -400
216 -430 241 -8 7 -26 18 -40 24 -14 7 -41 23 -60 37 -179 125 -189 130 -280
144 -47 7 -121 21 -165 32 -113 27 -331 42 -546 37 -153 -4 -198 -8 -264 -27
-177 -50 -282 -132 -323 -251 -14 -39 -15 -190 -2 -240 48 -183 97 -268 204
-352 107 -84 282 -208 294 -208 5 0 15 -7 23 -16 7 -8 33 -27 58 -40 25 -14
71 -40 101 -59 72 -44 122 -71 250 -134 58 -28 126 -63 151 -76 26 -14 53 -25
59 -25 7 0 36 -11 64 -24 28 -14 78 -35 111 -46 154 -56 193 -71 230 -90 21
-11 48 -20 59 -20 11 0 38 -9 60 -20 23 -10 73 -30 111 -44 127 -43 169 -59
240 -86 39 -15 86 -31 105 -35 19 -4 51 -16 72 -26 20 -10 57 -23 83 -29 26
-6 67 -19 91 -30 23 -11 67 -26 96 -34 29 -7 71 -21 93 -31 22 -9 69 -25 105
-35 66 -19 148 -45 255 -81 60 -20 186 -56 300 -85 33 -9 105 -29 160 -44 55
-16 120 -32 145 -36 25 -3 68 -15 95 -25 28 -10 91 -25 142 -34 50 -8 111 -22
135 -31 24 -8 84 -22 133 -30 50 -8 133 -25 185 -38 52 -13 131 -29 175 -35
44 -7 102 -19 129 -27 27 -7 103 -21 169 -29 66 -9 157 -25 203 -36 46 -11
132 -24 190 -29 112 -10 120 -11 284 -41 58 -10 200 -25 315 -34 116 -8 224
-18 240 -20 95 -16 516 -47 740 -55 494 -18 1189 -29 1355 -20 458 23 594 32
695 46 61 8 146 17 190 19 99 7 402 48 595 80 80 14 164 25 186 25 22 0 74 9
115 19 41 10 101 22 134 25 33 4 112 18 175 31 63 13 142 28 175 34 92 15 212
41 295 62 41 11 102 24 135 30 33 6 89 19 124 30 35 10 73 19 86 19 13 0 56
11 97 25 40 14 83 25 95 25 13 0 55 11 95 24 40 14 100 30 133 37 33 6 69 16
80 22 10 5 49 18 85 28 67 18 131 38 210 65 25 9 72 24 105 34 72 23 135 44
235 80 41 15 91 33 110 40 19 7 71 26 115 42 44 16 105 37 136 47 30 10 66 25
80 34 13 8 39 18 58 22 19 4 54 18 79 31 25 13 52 24 61 24 9 0 39 12 66 25
28 14 57 25 65 25 8 0 42 14 75 30 33 17 65 30 73 30 7 0 30 9 50 20 20 10 71
33 112 50 41 17 98 42 125 56 28 13 54 24 59 24 5 0 41 15 80 34 39 19 96 45
126 59 92 41 104 47 120 56 8 4 69 34 135 65 66 32 134 64 150 73 17 9 91 47
165 86 74 38 149 77 165 87 17 9 68 38 115 63 47 24 108 59 135 76 28 17 61
36 75 43 14 7 43 24 65 38 50 32 69 43 125 75 25 14 65 39 90 55 25 16 66 40
91 54 25 13 51 32 58 40 8 9 18 16 24 16 5 0 25 11 43 25 18 14 36 25 39 25 4
0 25 13 48 29 23 15 65 42 92 59 28 17 64 41 80 52 17 11 147 98 290 193 255
170 297 198 402 274 29 21 79 56 110 78 92 63 415 296 450 324 18 15 49 39 70
54 141 105 372 284 497 387 51 41 112 91 136 110 107 85 383 323 575 495 246
221 417 376 475 430 36 34 139 131 230 216 165 153 814 799 985 979 92 96 247
265 386 420 157 175 551 636 654 765 22 27 74 90 115 140 41 50 91 110 110
135 19 24 60 74 90 110 30 37 107 134 170 215 163 209 220 266 220 220 0 -9
-6 -28 -14 -44 -8 -15 -24 -61 -34 -102 -21 -75 -42 -142 -88 -279 -14 -41
-34 -104 -44 -140 -19 -68 -46 -151 -84 -260 -39 -109 -66 -192 -91 -270 -43
-134 -66 -203 -96 -282 -16 -42 -29 -84 -29 -92 0 -9 -10 -39 -23 -68 -13 -29
-27 -66 -31 -83 -4 -16 -20 -65 -37 -107 -16 -43 -29 -84 -29 -92 0 -9 -11
-39 -24 -69 -14 -29 -30 -75 -37 -102 -6 -28 -17 -59 -25 -71 -7 -12 -20 -48
-30 -80 -9 -32 -23 -72 -31 -88 -8 -16 -23 -57 -33 -90 -11 -34 -35 -106 -55
-161 -20 -55 -48 -131 -61 -170 -14 -38 -31 -85 -40 -103 -8 -18 -22 -56 -31
-85 -8 -29 -21 -63 -28 -77 -7 -14 -23 -54 -35 -90 -57 -166 -69 -199 -89
-235 -12 -22 -21 -48 -21 -58 0 -10 -10 -37 -22 -60 -11 -23 -32 -73 -46 -112
-56 -162 -72 -202 -91 -240 -12 -21 -21 -46 -21 -54 0 -8 -13 -44 -29 -80 -15
-36 -33 -79 -39 -96 -18 -51 -62 -158 -88 -212 -13 -28 -24 -57 -24 -63 0 -6
-11 -35 -24 -63 -28 -60 -69 -160 -96 -232 -10 -27 -28 -68 -39 -90 -12 -21
-21 -45 -21 -53 0 -7 -13 -41 -29 -76 -17 -34 -33 -75 -37 -91 -4 -15 -17 -47
-30 -69 -13 -23 -24 -47 -24 -55 0 -7 -11 -34 -24 -60 -12 -26 -29 -65 -36
-86 -7 -22 -19 -49 -26 -60 -7 -11 -23 -47 -35 -80 -12 -33 -28 -69 -35 -80
-6 -11 -15 -31 -19 -45 -4 -14 -20 -53 -36 -88 -16 -35 -29 -68 -29 -74 0 -6
-11 -31 -25 -57 -13 -25 -31 -64 -39 -86 -20 -55 -64 -162 -86 -210 -32 -67
-90 -202 -90 -209 0 -7 -33 -81 -90 -201 -16 -33 -34 -77 -40 -97 -6 -21 -15
-40 -20 -43 -5 -3 -14 -22 -21 -43 -6 -20 -27 -71 -46 -112 -19 -41 -46 -100
-59 -130 -14 -30 -36 -76 -50 -103 -13 -26 -24 -52 -24 -58 0 -10 -39 -96
-101 -224 -16 -33 -29 -66 -29 -73 0 -8 -8 -26 -18 -40 -10 -15 -25 -45 -34
-67 -29 -73 -85 -194 -95 -207 -6 -7 -16 -31 -23 -53 -7 -22 -21 -52 -31 -67
-11 -14 -19 -30 -19 -35 0 -4 -15 -39 -34 -78 -19 -38 -48 -99 -64 -135 -87
-189 -107 -233 -129 -275 -16 -29 -69 -144 -87 -185 -8 -19 -22 -46 -30 -60
-8 -14 -33 -65 -56 -115 -76 -164 -93 -200 -107 -225 -8 -14 -21 -41 -29 -60
-23 -52 -193 -401 -209 -430 -8 -14 -22 -41 -30 -60 -9 -19 -23 -48 -32 -65
-9 -16 -20 -37 -24 -45 -16 -34 -106 -216 -116 -235 -6 -11 -17 -33 -24 -50
-20 -46 -58 -95 -74 -95 -8 0 -20 10 -26 23 -24 45 -206 257 -283 330 -99 94
-298 247 -319 247 -4 0 -26 14 -49 30 -22 17 -46 30 -53 30 -7 0 -24 9 -38 20
-14 12 -41 26 -59 31 -18 6 -55 21 -83 34 -86 40 -243 86 -328 96 -104 12
-356 12 -422 0 -78 -15 -241 -58 -263 -70 -11 -6 -42 -18 -68 -27 -27 -9 -56
-22 -64 -29 -8 -6 -35 -22 -60 -33 -173 -83 -407 -344 -561 -627 -12 -22 -29
-51 -39 -65 -9 -14 -22 -40 -29 -59 -6 -19 -17 -42 -25 -50 -7 -9 -19 -34 -26
-56 -7 -21 -24 -60 -36 -86 -13 -26 -24 -52 -24 -58 0 -6 -13 -52 -30 -102
-45 -138 -64 -345 -56 -625 6 -186 11 -236 31 -320 14 -54 25 -107 25 -117 0
-57 96 -254 181 -372 76 -106 206 -228 289 -270 19 -9 42 -23 50 -30 8 -7 35
-20 60 -28 25 -8 66 -24 91 -35 74 -32 221 -46 409 -39 96 4 186 13 215 21 28
8 84 19 125 25 42 6 91 17 110 25 19 8 64 22 99 31 36 9 74 23 85 31 26 18 55
18 62 1 3 -8 -14 -48 -38 -91 -24 -42 -50 -89 -58 -104 -9 -15 -37 -65 -64
-112 -27 -47 -59 -104 -72 -127 -13 -24 -35 -62 -48 -85 -13 -24 -40 -70 -60
-103 -19 -33 -44 -76 -53 -95 -10 -19 -28 -49 -40 -67 -13 -17 -23 -33 -23
-36 0 -2 -23 -44 -52 -93 -28 -49 -58 -102 -66 -119 -9 -16 -26 -44 -39 -61
-13 -17 -23 -34 -23 -39 0 -4 -15 -31 -32 -59 -18 -28 -38 -60 -45 -71 -19
-31 -72 -118 -85 -140 -7 -11 -26 -42 -42 -70 -16 -27 -45 -75 -64 -105 -20
-30 -46 -71 -58 -90 -12 -19 -56 -89 -99 -155 -43 -66 -97 -149 -120 -185 -23
-36 -64 -98 -91 -139 -27 -41 -58 -88 -69 -106 -11 -18 -46 -70 -78 -116 -32
-46 -75 -108 -95 -138 -20 -29 -47 -68 -60 -85 -12 -17 -34 -49 -49 -71 -41
-62 -214 -293 -308 -411 -47 -58 -88 -117 -92 -131 -17 -72 25 -437 60 -515 9
-18 19 -44 22 -58 10 -35 53 -104 95 -153 53 -62 159 -107 249 -107 39 0 90 6
113 14 24 8 58 17 76 21 37 8 152 61 223 103 84 50 181 115 225 151 17 14 49
40 70 56 101 79 134 118 144 172 5 29 18 72 29 95 10 24 26 70 36 102 9 32 22
68 30 80 7 12 21 48 30 81 9 33 21 65 25 70 5 6 21 44 36 85 14 41 33 84 40
95 8 11 14 27 14 36 0 9 11 36 23 60 13 24 30 62 37 84 7 22 22 58 35 80 12
22 26 54 29 72 4 18 15 42 25 55 10 13 22 34 26 48 4 14 23 59 42 100 20 41
49 104 65 140 17 36 35 74 41 85 10 19 20 39 74 155 15 30 31 64 36 75 6 11
100 200 210 420 109 220 203 407 208 415 5 8 33 65 64 125 30 61 64 128 76
150 30 56 32 59 136 265 52 102 98 192 103 200 5 8 27 55 50 103 30 64 46 87
58 85 16 -3 57 -63 162 -238 28 -47 56 -94 63 -105 7 -11 23 -38 37 -60 14
-22 31 -51 38 -65 7 -14 29 -52 51 -85 21 -33 50 -82 65 -108 14 -26 41 -71
59 -100 19 -29 65 -103 103 -166 70 -116 78 -129 129 -216 16 -27 38 -63 49
-80 12 -16 26 -38 31 -47 9 -15 35 -58 131 -210 13 -21 35 -55 47 -75 175
-280 433 -625 637 -848 162 -177 346 -353 436 -415 132 -91 175 -120 179 -120
3 0 24 -14 47 -30 22 -17 46 -30 51 -30 6 0 20 -8 31 -18 12 -11 41 -27 65
-36 25 -10 56 -25 70 -35 14 -10 37 -22 51 -26 14 -4 40 -15 57 -26 18 -10 54
-25 80 -33 27 -8 68 -23 93 -34 25 -11 63 -23 85 -27 22 -4 76 -18 120 -32
134 -41 576 -58 740 -28 44 9 125 22 180 30 56 8 121 22 145 30 25 9 70 21
100 27 30 5 60 13 65 18 6 4 39 18 75 29 68 22 104 38 235 103 130 64 238 121
272 146 17 12 35 22 40 22 5 0 27 13 49 30 21 16 42 30 46 30 10 0 243 158
338 229 319 236 574 483 969 940 107 124 139 162 223 271 24 30 75 96 113 145
39 50 83 108 97 130 15 22 57 81 92 130 36 50 93 135 128 190 77 122 75 120
116 186 18 30 66 108 107 174 41 66 74 124 74 128 1 5 11 23 24 40 24 33 51
81 92 164 15 29 30 55 35 58 5 3 20 29 34 58 14 28 30 59 35 67 6 8 19 33 29
55 11 22 39 78 62 125 112 223 143 301 169 421 10 46 27 118 39 159 39 140 89
453 78 495 -8 33 -46 51 -73 36 -19 -10 -128 -147 -165 -208 -10 -15 -23 -37
-30 -48 -19 -28 -59 -94 -85 -140 -22 -40 -36 -67 -205 -415 -49 -102 -94
-192 -99 -200 -5 -8 -21 -39 -35 -67 -14 -29 -30 -55 -35 -59 -6 -3 -21 -29
-35 -57 -13 -29 -42 -81 -64 -117 -22 -36 -47 -79 -56 -97 -9 -18 -22 -37 -30
-44 -8 -6 -14 -17 -14 -23 0 -10 -56 -101 -98 -156 -10 -14 -38 -56 -62 -95
-42 -68 -104 -156 -165 -235 -16 -22 -46 -60 -65 -85 -44 -59 -271 -338 -291
-357 -7 -8 -41 -46 -73 -84 -129 -149 -430 -436 -592 -564 -105 -83 -403 -290
-449 -312 -11 -5 -47 -25 -80 -43 -87 -50 -214 -111 -257 -125 -21 -6 -40 -15
-43 -20 -3 -4 -24 -11 -48 -15 -23 -3 -78 -17 -122 -30 -44 -13 -144 -34 -223
-46 -173 -27 -349 -23 -447 9 -33 11 -80 25 -105 31 -25 6 -63 19 -85 31 -21
11 -45 20 -52 20 -7 0 -57 23 -110 51 -54 28 -115 60 -135 70 -20 10 -40 23
-43 29 -4 6 -23 19 -43 31 -169 92 -540 455 -767 748 -28 35 -66 85 -85 110
-49 63 -133 185 -234 337 -47 71 -94 141 -105 156 -12 14 -21 29 -21 32 0 4
-25 43 -55 87 -30 44 -55 82 -55 83 0 2 -36 61 -81 132 -44 71 -100 162 -122
202 -23 40 -54 94 -69 120 -15 26 -39 67 -53 92 -15 25 -42 72 -61 105 -19 33
-41 74 -50 90 -8 17 -30 55 -49 85 -19 30 -45 75 -58 100 -13 25 -50 90 -82
145 -31 55 -68 119 -81 143 -59 104 -118 208 -167 290 -15 26 -35 63 -45 82
-18 37 -42 77 -74 123 -31 45 -21 58 143 189 64 51 354 291 409 338 149 128
379 328 415 360 22 20 69 63 105 96 187 169 533 488 640 589 41 39 118 111
170 160 327 308 1168 1142 1451 1440 57 60 145 153 195 205 197 206 844 911
1015 1105 19 22 98 110 175 195 76 85 186 209 243 275 57 66 109 125 115 130
6 6 67 75 136 155 69 80 137 159 151 175 107 122 650 764 725 855 38 47 106
131 151 185 71 87 343 424 547 680 35 44 95 118 132 165 38 46 91 114 119 151
48 63 167 215 257 328 24 29 70 88 103 132 115 149 234 304 285 369 69 88 192
250 210 276 8 12 35 48 60 80 25 32 52 68 60 80 8 12 54 72 102 135 186 246
308 409 416 559 34 47 85 118 114 158 29 40 67 91 83 112 17 21 46 62 65 90
19 28 58 81 86 118 52 70 111 152 169 237 19 28 51 73 70 100 20 28 47 66 60
85 14 19 40 58 60 85 20 28 57 81 83 119 48 70 83 120 138 197 65 92 100 142
114 163 44 65 94 137 125 181 44 62 82 116 115 165 14 21 34 50 45 66 86 125
131 192 140 206 6 9 31 46 58 83 26 36 47 70 47 74 0 5 7 14 15 21 12 10 171
244 355 520 25 38 50 75 55 83 69 102 393 586 400 599 6 9 31 47 56 85 96 142
224 338 228 348 4 9 41 66 91 140 57 83 90 135 90 139 0 2 25 41 55 86 30 45
55 84 55 87 0 3 15 26 33 52 35 50 48 70 75 114 31 52 75 121 101 161 14 21
30 46 36 56 25 43 79 130 117 190 22 36 46 74 52 85 6 11 23 38 37 60 64 97
133 207 148 234 16 30 61 102 109 178 15 23 55 89 90 145 34 57 68 112 75 123
6 11 22 34 34 52 13 17 23 34 23 38 0 3 16 31 35 61 19 30 35 57 35 59 0 3 14
24 30 47 17 22 30 45 30 50 0 6 10 24 23 41 25 35 147 238 147 244 0 2 16 27
35 56 19 28 35 55 35 59 0 5 14 27 30 50 17 22 30 47 30 53 0 7 7 18 16 26 8
7 26 33 40 58 27 51 34 63 81 138 18 29 33 56 33 60 1 5 21 40 45 78 25 39 59
95 75 125 17 30 46 80 65 110 18 30 43 73 54 95 12 22 37 67 57 100 20 33 46
78 59 100 31 55 118 207 130 226 5 9 25 43 43 75 18 32 46 84 64 114 17 30 38
69 47 86 9 16 26 43 37 60 11 16 28 45 37 64 10 19 33 62 52 95 55 100 82 148
109 199 14 26 31 55 37 63 7 7 23 35 36 61 13 26 37 70 52 97 134 237 167 296
187 333 25 45 60 107 106 187 15 28 38 70 51 95 12 25 31 57 40 72 10 15 29
46 42 70 13 24 34 63 48 88 58 106 204 368 233 419 23 41 73 131 117 211 37
67 71 127 118 211 81 144 94 166 120 214 16 28 40 73 55 100 14 28 43 79 64
115 22 36 51 88 65 115 14 28 38 73 54 100 16 28 40 70 54 95 13 25 37 68 53
95 15 28 40 74 55 102 15 29 37 66 48 82 12 16 21 32 21 36 0 6 76 145 241
440 15 28 41 75 57 105 16 30 42 80 59 110 16 30 44 81 61 113 17 31 45 83 63
115 17 31 42 77 55 102 13 25 53 99 89 165 36 66 77 143 91 170 13 28 39 77
57 110 161 296 236 444 237 462 0 7 11 36 24 65 63 138 125 420 126 568 0 112
-26 235 -65 310 -34 64 -155 200 -178 200 -5 0 -23 11 -40 24 -54 41 -156 58
-269 45z m-18991 -23070 c154 -83 439 -281 588 -408 119 -101 378 -360 405
-404 20 -32 13 -67 -13 -67 -7 0 -35 -11 -63 -24 -27 -14 -65 -29 -84 -34 -19
-6 -57 -19 -85 -30 -94 -37 -159 -57 -365 -112 -25 -7 -81 -23 -125 -35 -44
-13 -102 -26 -130 -30 -27 -3 -92 -13 -144 -21 -52 -9 -110 -13 -130 -9 -88
17 -199 104 -243 193 -21 42 -23 60 -22 172 0 79 7 154 18 205 10 44 24 109
31 145 14 71 67 224 107 310 30 63 97 137 148 162 45 23 40 23 107 -13z"/>
<path d="M35282 21470 c-52 -10 -115 -27 -140 -38 -26 -12 -63 -28 -82 -37
-264 -116 -493 -416 -530 -695 -6 -47 -13 -101 -15 -120 -3 -19 0 -93 6 -165
9 -97 18 -144 35 -184 13 -29 24 -60 24 -68 0 -18 60 -128 111 -203 35 -52
129 -151 194 -202 38 -31 140 -98 149 -98 3 0 34 -13 69 -30 71 -33 287 -80
369 -80 140 1 391 66 470 121 14 11 30 19 36 19 18 0 138 98 202 166 70 75
143 175 155 214 4 14 14 32 22 41 8 10 30 68 49 130 29 95 36 135 41 239 5
111 2 138 -21 242 -30 133 -34 147 -51 168 -7 8 -16 29 -19 45 -4 17 -18 44
-32 62 -13 17 -24 36 -24 41 0 15 -86 120 -151 185 -58 57 -137 114 -207 151
-97 51 -123 61 -234 87 -142 34 -276 37 -426 9z"/>
</g>
</svg>
