<svg width="337" height="99" viewBox="0 0 337 99" fill="none" xmlns="http://www.w3.org/2000/svg">
<path d="M41.992 38.68C38.184 41.688 34.136 44.312 29.848 46.552C25.592 48.792 21.064 50.6 16.264 51.976C18.696 52.04 21.352 52.168 24.232 52.36C27.144 52.52 30.12 52.84 33.16 53.32C36.232 53.8 39.304 54.488 42.376 55.384C45.48 56.28 48.456 57.48 51.304 58.984C53.32 60.04 55.032 61.288 56.44 62.728C57.88 64.2 58.872 65.912 59.416 67.864C59.672 68.792 59.656 69.624 59.368 70.36C59.112 71.128 58.744 71.704 58.264 72.088C57.816 72.472 57.352 72.616 56.872 72.52C56.424 72.424 56.12 72.008 55.96 71.272C55.48 68.872 54.6 66.84 53.32 65.176C52.04 63.544 50.488 62.12 48.664 60.904C46.072 59.208 43.32 57.896 40.408 56.968C37.496 56.04 34.488 55.368 31.384 54.952C28.28 54.504 25.096 54.248 21.832 54.184C18.6 54.088 15.384 54.056 12.184 54.088C11.352 56.712 10.6 59.272 9.928 61.768C9.256 64.296 8.712 66.728 8.296 69.064C7.656 72.712 7.416 75.944 7.576 78.76C7.768 81.608 8.424 83.992 9.544 85.912C10.088 86.456 10.424 86.968 10.552 87.448C10.68 87.928 10.664 88.344 10.504 88.696C10.344 89.08 10.072 89.352 9.688 89.512C9.304 89.672 8.872 89.704 8.392 89.608C7.944 89.512 7.48 89.24 7 88.792C6.52 88.376 6.088 87.752 5.704 86.92C5.32 86.152 5.048 85.128 4.888 83.848C4.76 82.568 4.728 81.08 4.792 79.384C4.888 77.688 5.08 75.8 5.368 73.72C5.688 71.672 6.088 69.48 6.568 67.144C7.4 63.08 8.44 58.728 9.688 54.088C7.736 54.152 5.816 54.152 3.928 54.088C3 54.088 2.296 53.912 1.816 53.56C1.368 53.208 1.112 52.792 1.048 52.312C0.984 51.832 1.064 51.336 1.288 50.824C1.544 50.312 1.896 49.896 2.344 49.576C2.792 49.224 3.288 49.016 3.832 48.952C4.408 48.856 5 49 5.608 49.384C6.408 49.736 7.224 49.992 8.056 50.152C8.92 50.28 9.816 50.36 10.744 50.392C11.896 46.392 13.16 42.312 14.536 38.152C15.912 33.992 17.336 29.912 18.808 25.912C20.312 21.912 21.848 18.072 23.416 14.392C24.984 10.68 26.52 7.256 28.024 4.12C28.536 3.064 29.192 2.36 29.992 2.008C30.824 1.656 31.528 1.608 32.104 1.86399C32.712 2.12 33.08 2.68 33.208 3.544C33.368 4.376 33.032 5.464 32.2 6.808C32.168 6.936 31.848 7.624 31.24 8.872C30.664 10.088 29.88 11.72 28.888 13.768C27.928 15.816 26.808 18.216 25.528 20.968C24.248 23.688 22.92 26.648 21.544 29.848C20.168 33.016 18.776 36.344 17.368 39.832C15.992 43.288 14.696 46.76 13.48 50.248C15.88 49.992 18.328 49.416 20.824 48.52C23.32 47.592 25.752 46.52 28.12 45.304C30.488 44.056 32.712 42.744 34.792 41.368C36.872 39.96 38.696 38.648 40.264 37.432C42.152 35.96 44.12 34.28 46.168 32.392C48.248 30.504 50.28 28.536 52.264 26.488C54.248 24.408 56.152 22.328 57.976 20.248C59.8 18.136 61.416 16.136 62.824 14.248C64.232 12.36 65.384 10.648 66.28 9.112C67.176 7.544 67.704 6.28 67.864 5.32C67.992 4.552 68.248 3.96 68.632 3.544C69.016 3.128 69.432 2.856 69.88 2.72799C70.36 2.6 70.824 2.616 71.272 2.776C71.752 2.936 72.12 3.224 72.376 3.64C72.632 4.056 72.744 4.584 72.712 5.224C72.68 5.864 72.408 6.6 71.896 7.432C71.288 8.456 70.392 9.72 69.208 11.224C68.056 12.696 66.696 14.328 65.128 16.12C63.56 17.912 61.832 19.8 59.944 21.784C58.088 23.768 56.152 25.752 54.136 27.736C52.152 29.72 50.12 31.656 48.04 33.544C45.96 35.4 43.944 37.112 41.992 38.68ZM72.0974 46.408C71.7454 46.696 71.2814 47.208 70.7054 47.944C70.1614 48.68 69.5374 49.496 68.8334 50.392C68.1294 51.288 67.3614 52.2 66.5294 53.128C65.6974 54.024 64.8334 54.808 63.9374 55.48C63.0734 56.12 62.1774 56.568 61.2494 56.824C60.3534 57.08 59.4734 56.984 58.6094 56.536C57.8414 56.152 57.3454 55.496 57.1214 54.568C56.8654 53.64 56.8014 52.68 56.9294 51.688C57.1534 49.704 57.7774 47.864 58.8014 46.168C59.8574 44.472 61.1534 43.032 62.6894 41.848C64.2574 40.632 66.0014 39.736 67.9214 39.16C69.8414 38.584 71.8094 38.44 73.8254 38.728C75.0414 38.888 76.1774 39.272 77.2334 39.88C78.2894 40.456 79.0894 41.32 79.6334 42.472C79.8894 43.016 79.9374 43.448 79.7774 43.768C79.6174 44.088 79.3614 44.28 79.0094 44.344C78.6894 44.408 78.3214 44.328 77.9054 44.104C77.5214 43.848 77.2174 43.432 76.9934 42.856C76.5454 42.024 75.9854 41.4 75.3134 40.984C74.6414 40.536 73.9214 40.28 73.1534 40.216C72.1614 40.12 71.1534 40.312 70.1294 40.792C69.1054 41.24 68.1294 41.88 67.2014 42.712C66.2734 43.512 65.4254 44.44 64.6574 45.496C63.8894 46.552 63.2814 47.624 62.8334 48.712C62.7374 48.936 62.6094 49.24 62.4494 49.624C62.3214 50.008 62.2094 50.424 62.1134 50.872C62.0174 51.288 61.9534 51.704 61.9214 52.12C61.9214 52.504 62.0014 52.808 62.1614 53.032C62.2894 53.224 62.5934 53.16 63.0734 52.84C63.5854 52.52 64.1774 52.072 64.8494 51.496C65.5214 50.888 66.2254 50.2 66.9614 49.432C67.7294 48.664 68.4494 47.928 69.1214 47.224C69.8254 46.52 70.4334 45.896 70.9454 45.352C71.4574 44.808 71.7934 44.456 71.9534 44.296C72.5294 43.752 73.1054 43.4 73.6814 43.24C74.2574 43.048 74.7534 43.016 75.1694 43.144C75.6174 43.272 75.9374 43.528 76.1294 43.912C76.3534 44.296 76.3854 44.744 76.2254 45.256C75.6814 46.888 75.3454 48.296 75.2174 49.48C75.0894 50.664 75.1214 51.656 75.3134 52.456C75.5054 53.224 75.8414 53.832 76.3214 54.28C76.8014 54.728 77.3774 55.032 78.0494 55.192C79.2014 55.448 80.5614 55.352 82.1294 54.904C83.7294 54.424 85.3294 53.736 86.9294 52.84C88.5614 51.944 90.0974 50.936 91.5374 49.816C92.9774 48.696 94.1294 47.624 94.9934 46.6C95.3134 46.152 95.6654 45.864 96.0494 45.736C96.4334 45.608 96.7374 45.608 96.9614 45.736C97.2174 45.864 97.3294 46.12 97.2974 46.504C97.2654 46.856 97.0094 47.288 96.5294 47.8C95.4734 49.048 94.1934 50.28 92.6894 51.496C91.2174 52.712 89.6174 53.768 87.8894 54.664C86.1614 55.56 84.3694 56.248 82.5134 56.728C80.6894 57.208 78.8974 57.352 77.1374 57.16C75.6974 57.032 74.4974 56.648 73.5374 56.008C72.5774 55.336 71.8734 54.52 71.4254 53.56C71.0094 52.568 70.8494 51.464 70.9454 50.248C71.0414 49 71.4254 47.72 72.0974 46.408ZM124.744 47.8C124.264 48.408 123.64 49.176 122.872 50.104C122.104 51.032 121.224 52.024 120.232 53.08C119.24 54.136 118.152 55.208 116.968 56.296C115.816 57.384 114.616 58.408 113.368 59.368C112.12 60.296 110.84 61.096 109.528 61.768C108.216 62.44 106.92 62.888 105.64 63.112C104.488 63.304 103.32 63.256 102.136 62.968C100.984 62.68 100.008 62.024 99.2084 61C98.6004 60.136 98.2484 59.176 98.1524 58.12C98.0884 57.064 98.1684 56.008 98.3924 54.952C98.6484 53.896 99.0004 52.888 99.4484 51.928C99.9284 50.936 100.44 50.088 100.984 49.384C100.344 49.48 99.6884 49.464 99.0164 49.336C98.3444 49.208 97.7044 49 97.0964 48.712C96.5204 48.392 96.0084 48.008 95.5604 47.56C95.1124 47.08 94.8244 46.536 94.6964 45.928C94.5684 45.288 94.6644 44.568 94.9844 43.768C95.3044 42.936 95.9284 42.232 96.8564 41.656C97.2084 41.464 97.5604 41.352 97.9124 41.32C98.2964 41.288 98.6324 41.32 98.9204 41.416C99.2404 41.512 99.4964 41.672 99.6884 41.896C99.9124 42.088 100.04 42.328 100.072 42.616C100.136 42.904 100.072 43.16 99.8804 43.384C99.7204 43.576 99.5124 43.768 99.2564 43.96C99.0324 44.12 98.8244 44.264 98.6324 44.392C98.4404 44.52 98.3604 44.632 98.3924 44.728C98.4564 45.048 98.6964 45.352 99.1124 45.64C99.5284 45.896 100.008 46.152 100.552 46.408C101.096 46.664 101.64 46.904 102.184 47.128C102.728 47.352 103.16 47.56 103.48 47.752C104.216 48.232 104.68 48.776 104.872 49.384C105.096 49.96 105.144 50.584 105.016 51.256C104.888 51.896 104.648 52.568 104.296 53.272C103.976 53.944 103.624 54.632 103.24 55.336C102.888 56.008 102.568 56.664 102.28 57.304C102.024 57.944 101.896 58.536 101.896 59.08C101.896 59.624 102.024 60.056 102.28 60.376C102.568 60.696 102.92 60.92 103.336 61.048C103.752 61.208 104.216 61.272 104.728 61.24C105.24 61.24 105.72 61.192 106.168 61.096C107.224 60.84 108.312 60.376 109.432 59.704C110.584 59.032 111.72 58.248 112.84 57.352C113.96 56.424 115.048 55.432 116.104 54.376C117.16 53.32 118.136 52.296 119.032 51.304C119.928 50.312 120.728 49.4 121.432 48.568C122.168 47.736 122.76 47.08 123.208 46.6C123.592 46.184 123.976 45.928 124.36 45.832C124.744 45.704 125.048 45.704 125.272 45.832C125.496 45.928 125.576 46.152 125.512 46.504C125.48 46.856 125.224 47.288 124.744 47.8ZM127.763 45.064C127.379 45.864 126.867 47.112 126.227 48.808C125.619 50.504 124.995 52.408 124.355 54.52C123.715 56.6 123.155 58.776 122.675 61.048C122.163 63.32 121.859 65.416 121.763 67.336C121.635 69.288 121.779 70.952 122.195 72.328C122.611 73.704 123.427 74.552 124.643 74.872C125.443 75.096 126.355 74.952 127.379 74.44C128.435 73.96 129.555 73.208 130.739 72.184C131.923 71.192 133.139 69.976 134.387 68.536C135.635 67.096 136.883 65.56 138.131 63.928C139.379 62.296 140.579 60.6 141.731 58.84C142.883 57.08 143.955 55.368 144.947 53.704C145.683 52.456 146.403 51.24 147.107 50.056C147.843 48.84 148.579 47.688 149.315 46.6C149.667 46.024 150.019 45.672 150.371 45.544C150.723 45.384 150.995 45.384 151.187 45.544C151.379 45.704 151.459 46.008 151.427 46.456C151.395 46.872 151.171 47.368 150.755 47.944C149.955 49.16 149.155 50.44 148.355 51.784C147.555 53.096 146.739 54.44 145.907 55.816C144.403 58.344 142.691 60.84 140.771 63.304C138.883 65.8 136.931 68.024 134.915 69.976C132.931 71.928 130.995 73.464 129.107 74.584C127.251 75.736 125.619 76.232 124.211 76.072C122.931 75.912 121.923 75.416 121.187 74.584C120.419 73.784 119.875 72.728 119.555 71.416C119.235 70.136 119.107 68.664 119.171 67C119.203 65.368 119.347 63.64 119.603 61.816C119.859 59.992 120.211 58.152 120.659 56.296C121.075 54.408 121.523 52.6 122.003 50.872C122.707 48.216 123.475 45.528 124.307 42.808C125.171 40.088 126.067 37.432 126.995 34.84C127.923 32.216 128.883 29.704 129.875 27.304C130.867 24.904 131.875 22.696 132.899 20.68C133.923 18.632 134.931 16.824 135.923 15.256C136.947 13.656 137.939 12.36 138.899 11.368C139.699 10.568 140.547 10.008 141.443 9.688C142.339 9.336 143.139 9.272 143.843 9.496C144.579 9.72 145.123 10.248 145.475 11.08C145.859 11.912 145.907 13.112 145.619 14.68C145.363 16.088 144.883 17.624 144.179 19.288C143.507 20.952 142.691 22.68 141.731 24.472C140.771 26.264 139.699 28.088 138.515 29.944C137.331 31.8 136.115 33.624 134.867 35.416C133.619 37.208 132.387 38.92 131.171 40.552C129.955 42.184 128.819 43.688 127.763 45.064ZM137.747 20.968C136.211 23.432 134.755 26.248 133.379 29.416C132.035 32.584 130.803 35.784 129.683 39.016C130.579 37.736 131.507 36.376 132.467 34.936C133.427 33.496 134.355 32.04 135.251 30.568C136.179 29.064 137.059 27.576 137.891 26.104C138.755 24.632 139.539 23.192 140.243 21.784C141.235 19.832 141.859 18.376 142.115 17.416C142.403 16.424 142.403 15.912 142.115 15.88C141.827 15.816 141.299 16.216 140.531 17.08C139.763 17.944 138.835 19.24 137.747 20.968ZM162.801 46.408C162.449 46.696 161.985 47.208 161.409 47.944C160.865 48.68 160.241 49.496 159.537 50.392C158.833 51.288 158.065 52.2 157.233 53.128C156.401 54.024 155.537 54.808 154.641 55.48C153.777 56.12 152.881 56.568 151.953 56.824C151.057 57.08 150.177 56.984 149.312 56.536C148.544 56.152 148.048 55.496 147.824 54.568C147.568 53.64 147.504 52.68 147.632 51.688C147.856 49.704 148.48 47.864 149.505 46.168C150.561 44.472 151.857 43.032 153.393 41.848C154.961 40.632 156.705 39.736 158.625 39.16C160.545 38.584 162.513 38.44 164.529 38.728C165.745 38.888 166.881 39.272 167.937 39.88C168.993 40.456 169.793 41.32 170.337 42.472C170.593 43.016 170.641 43.448 170.481 43.768C170.321 44.088 170.065 44.28 169.713 44.344C169.393 44.408 169.025 44.328 168.609 44.104C168.225 43.848 167.921 43.432 167.697 42.856C167.249 42.024 166.689 41.4 166.017 40.984C165.345 40.536 164.625 40.28 163.857 40.216C162.865 40.12 161.857 40.312 160.833 40.792C159.809 41.24 158.833 41.88 157.905 42.712C156.977 43.512 156.129 44.44 155.361 45.496C154.593 46.552 153.985 47.624 153.537 48.712C153.441 48.936 153.313 49.24 153.153 49.624C153.025 50.008 152.913 50.424 152.817 50.872C152.721 51.288 152.657 51.704 152.625 52.12C152.625 52.504 152.705 52.808 152.865 53.032C152.993 53.224 153.297 53.16 153.777 52.84C154.289 52.52 154.881 52.072 155.553 51.496C156.225 50.888 156.929 50.2 157.665 49.432C158.433 48.664 159.153 47.928 159.825 47.224C160.529 46.52 161.137 45.896 161.648 45.352C162.161 44.808 162.497 44.456 162.657 44.296C163.233 43.752 163.809 43.4 164.385 43.24C164.961 43.048 165.457 43.016 165.873 43.144C166.321 43.272 166.641 43.528 166.833 43.912C167.057 44.296 167.089 44.744 166.929 45.256C166.385 46.888 166.049 48.296 165.921 49.48C165.793 50.664 165.825 51.656 166.017 52.456C166.209 53.224 166.545 53.832 167.025 54.28C167.505 54.728 168.081 55.032 168.753 55.192C169.905 55.448 171.265 55.352 172.833 54.904C174.433 54.424 176.033 53.736 177.633 52.84C179.265 51.944 180.801 50.936 182.241 49.816C183.681 48.696 184.833 47.624 185.697 46.6C186.017 46.152 186.369 45.864 186.753 45.736C187.137 45.608 187.441 45.608 187.665 45.736C187.921 45.864 188.033 46.12 188.001 46.504C187.969 46.856 187.713 47.288 187.233 47.8C186.177 49.048 184.897 50.28 183.393 51.496C181.921 52.712 180.321 53.768 178.593 54.664C176.865 55.56 175.073 56.248 173.217 56.728C171.393 57.208 169.601 57.352 167.841 57.16C166.401 57.032 165.201 56.648 164.241 56.008C163.281 55.336 162.577 54.52 162.129 53.56C161.713 52.568 161.553 51.464 161.648 50.248C161.745 49 162.129 47.72 162.801 46.408ZM248.424 77.8C247.528 76.008 247.016 73.976 246.888 71.704C246.76 69.464 246.872 67.16 247.224 64.792C247.608 62.424 248.136 60.104 248.808 57.832C249.48 55.528 250.168 53.448 250.872 51.592C251.448 50.088 251.992 48.616 252.504 47.176C253.016 45.736 253.48 44.264 253.896 42.76C254.312 41.256 254.664 39.704 254.952 38.104C255.272 36.504 255.528 34.792 255.72 32.968C255.848 31.752 255.816 30.68 255.624 29.752C255.464 28.824 255.112 28.136 254.568 27.688C254.056 27.24 253.336 27.064 252.408 27.16C251.512 27.224 250.376 27.656 249 28.456C247.24 29.448 245.496 30.76 243.768 32.392C242.072 33.992 240.424 35.784 238.823 37.768C237.224 39.752 235.704 41.864 234.264 44.104C232.824 46.344 231.512 48.584 230.328 50.824C229.752 51.912 229.16 53.032 228.552 54.184C227.976 55.336 227.432 56.536 226.92 57.784C226.44 59 226.008 60.232 225.624 61.48C225.272 62.728 225.048 63.992 224.952 65.272C224.888 66.2 224.68 66.952 224.328 67.528C224.008 68.136 223.656 68.488 223.272 68.584C222.888 68.712 222.552 68.536 222.264 68.056C221.976 67.608 221.864 66.808 221.928 65.656C222.056 63.608 222.488 61.16 223.224 58.312C223.992 55.432 224.888 52.312 225.912 48.952C226.744 46.264 227.608 43.464 228.504 40.552C229.4 37.64 230.248 34.728 231.048 31.816C231.848 28.904 232.536 26.024 233.112 23.176C233.72 20.328 234.136 17.624 234.36 15.064C234.552 12.856 234.584 11.064 234.456 9.688C234.328 8.28 234.056 7.192 233.64 6.424C233.256 5.624 232.744 5.096 232.104 4.84C231.496 4.552 230.792 4.424 229.992 4.456C228.936 4.52 227.736 4.856 226.392 5.464C225.08 6.072 223.704 6.936 222.264 8.056C220.824 9.176 219.352 10.52 217.848 12.088C216.376 13.656 214.936 15.416 213.528 17.368C210.776 21.208 208.104 25.352 205.512 29.8C202.92 34.248 200.536 38.824 198.359 43.528C196.184 48.232 194.28 52.968 192.648 57.736C191.016 62.472 189.8 67.064 189 71.512C188.52 74.232 188.168 76.776 187.944 79.144C187.72 81.544 187.656 83.688 187.752 85.576C187.848 87.464 188.136 89.048 188.616 90.328C189.096 91.64 189.784 92.568 190.68 93.112C191.256 93.432 191.496 93.816 191.4 94.264C191.336 94.744 191.096 95.128 190.68 95.416C190.264 95.704 189.736 95.816 189.096 95.752C188.488 95.688 187.896 95.288 187.32 94.552C186.744 93.784 186.328 92.616 186.072 91.048C185.816 89.48 185.688 87.608 185.688 85.432C185.72 83.288 185.848 80.888 186.072 78.232C186.328 75.576 186.68 72.792 187.128 69.88C187.864 64.888 189 59.752 190.536 54.472C192.104 49.192 193.976 44.024 196.152 38.968C198.36 33.912 200.84 29.096 203.592 24.52C206.344 19.944 209.288 15.832 212.424 12.184C214.024 10.328 215.688 8.664 217.416 7.192C219.144 5.688 220.84 4.44 222.504 3.448C224.168 2.424 225.768 1.704 227.304 1.288C228.872 0.871996 230.28 0.807997 231.528 1.096C232.424 1.32 233.224 1.736 233.927 2.344C234.632 2.952 235.208 3.784 235.656 4.84C236.104 5.896 236.408 7.192 236.568 8.72799C236.76 10.232 236.76 12.008 236.568 14.056C236.312 16.904 235.864 19.848 235.224 22.888C234.616 25.896 233.912 28.92 233.112 31.96C232.312 35 231.464 38.024 230.568 41.032C229.704 44.008 228.888 46.888 228.12 49.672C229.432 47.304 230.904 44.92 232.536 42.52C234.2 40.12 235.944 37.864 237.768 35.752C239.592 33.64 241.48 31.736 243.432 30.04C245.384 28.344 247.32 27.016 249.24 26.056C251.064 25.16 252.744 24.616 254.28 24.424C255.848 24.232 257.144 24.424 258.168 25C259.192 25.576 259.864 26.568 260.184 27.976C260.536 29.384 260.392 31.208 259.752 33.448C258.984 36.328 257.992 39.288 256.776 42.328C255.56 45.336 254.264 48.632 252.888 52.216C252.472 53.24 252.04 54.408 251.592 55.72C251.176 57.032 250.792 58.424 250.44 59.896C250.12 61.368 249.864 62.856 249.672 64.36C249.48 65.896 249.416 67.384 249.48 68.824C249.576 70.296 249.832 71.672 250.248 72.952C250.696 74.232 251.368 75.368 252.264 76.36C252.968 77.16 253.272 77.928 253.176 78.664C253.08 79.4 252.76 79.912 252.216 80.2C251.704 80.52 251.08 80.52 250.344 80.2C249.608 79.912 248.968 79.112 248.424 77.8ZM277.644 46.408C277.292 46.696 276.828 47.208 276.252 47.944C275.708 48.68 275.084 49.496 274.38 50.392C273.676 51.288 272.908 52.2 272.076 53.128C271.244 54.024 270.38 54.808 269.484 55.48C268.62 56.12 267.724 56.568 266.796 56.824C265.9 57.08 265.02 56.984 264.156 56.536C263.388 56.152 262.892 55.496 262.668 54.568C262.412 53.64 262.348 52.68 262.476 51.688C262.7 49.704 263.324 47.864 264.348 46.168C265.404 44.472 266.7 43.032 268.236 41.848C269.804 40.632 271.548 39.736 273.468 39.16C275.388 38.584 277.356 38.44 279.372 38.728C280.588 38.888 281.724 39.272 282.78 39.88C283.836 40.456 284.636 41.32 285.18 42.472C285.436 43.016 285.484 43.448 285.324 43.768C285.164 44.088 284.908 44.28 284.556 44.344C284.236 44.408 283.868 44.328 283.452 44.104C283.068 43.848 282.764 43.432 282.54 42.856C282.092 42.024 281.532 41.4 280.86 40.984C280.188 40.536 279.468 40.28 278.7 40.216C277.708 40.12 276.7 40.312 275.676 40.792C274.652 41.24 273.676 41.88 272.748 42.712C271.82 43.512 270.972 44.44 270.204 45.496C269.436 46.552 268.828 47.624 268.38 48.712C268.284 48.936 268.156 49.24 267.996 49.624C267.868 50.008 267.756 50.424 267.66 50.872C267.564 51.288 267.5 51.704 267.468 52.12C267.468 52.504 267.548 52.808 267.708 53.032C267.836 53.224 268.14 53.16 268.62 52.84C269.132 52.52 269.724 52.072 270.396 51.496C271.068 50.888 271.772 50.2 272.508 49.432C273.276 48.664 273.996 47.928 274.668 47.224C275.372 46.52 275.98 45.896 276.492 45.352C277.004 44.808 277.34 44.456 277.5 44.296C278.076 43.752 278.652 43.4 279.228 43.24C279.804 43.048 280.3 43.016 280.716 43.144C281.164 43.272 281.484 43.528 281.676 43.912C281.9 44.296 281.932 44.744 281.772 45.256C281.228 46.888 280.892 48.296 280.764 49.48C280.636 50.664 280.668 51.656 280.86 52.456C281.052 53.224 281.388 53.832 281.868 54.28C282.348 54.728 282.924 55.032 283.596 55.192C284.748 55.448 286.108 55.352 287.676 54.904C289.276 54.424 290.876 53.736 292.476 52.84C294.108 51.944 295.644 50.936 297.084 49.816C298.524 48.696 299.676 47.624 300.54 46.6C300.86 46.152 301.212 45.864 301.596 45.736C301.98 45.608 302.284 45.608 302.508 45.736C302.764 45.864 302.876 46.12 302.844 46.504C302.812 46.856 302.556 47.288 302.076 47.8C301.02 49.048 299.74 50.28 298.236 51.496C296.764 52.712 295.164 53.768 293.436 54.664C291.708 55.56 289.916 56.248 288.06 56.728C286.236 57.208 284.444 57.352 282.684 57.16C281.244 57.032 280.044 56.648 279.084 56.008C278.124 55.336 277.42 54.52 276.972 53.56C276.556 52.568 276.396 51.464 276.492 50.248C276.588 49 276.972 47.72 277.644 46.408ZM314.739 46.264C314.387 46.552 313.907 47.064 313.299 47.8C312.691 48.536 312.003 49.368 311.235 50.296C310.499 51.192 309.683 52.104 308.787 53.032C307.923 53.96 307.011 54.76 306.051 55.432C305.123 56.104 304.179 56.568 303.219 56.824C302.291 57.08 301.395 56.984 300.531 56.536C299.763 56.152 299.267 55.496 299.043 54.568C298.787 53.64 298.723 52.68 298.851 51.688C299.075 49.704 299.699 47.864 300.723 46.168C301.779 44.472 303.075 43.032 304.611 41.848C306.179 40.632 307.923 39.736 309.843 39.16C311.763 38.584 313.731 38.44 315.747 38.728C316.963 38.888 318.099 39.272 319.155 39.88C320.211 40.456 321.011 41.32 321.555 42.472C321.811 43.016 321.859 43.448 321.699 43.768C321.539 44.088 321.283 44.28 320.931 44.344C320.611 44.408 320.243 44.328 319.827 44.104C319.443 43.848 319.139 43.432 318.915 42.856C318.467 42.024 317.907 41.4 317.235 40.984C316.563 40.536 315.843 40.28 315.075 40.216C314.083 40.12 313.075 40.312 312.051 40.792C311.027 41.24 310.051 41.88 309.123 42.712C308.195 43.512 307.347 44.44 306.579 45.496C305.811 46.552 305.203 47.624 304.755 48.712C304.659 48.936 304.531 49.24 304.371 49.624C304.243 50.008 304.131 50.424 304.035 50.872C303.939 51.288 303.875 51.704 303.843 52.12C303.843 52.504 303.923 52.808 304.083 53.032C304.211 53.224 304.531 53.16 305.043 52.84C305.587 52.52 306.211 52.072 306.915 51.496C307.651 50.888 308.419 50.216 309.219 49.48C310.051 48.712 310.819 47.976 311.523 47.272C312.259 46.536 312.867 45.88 313.347 45.304C313.859 44.728 314.163 44.344 314.259 44.152C314.355 43.928 314.531 43.736 314.787 43.576C315.075 43.384 315.347 43.288 315.603 43.288C315.891 43.288 316.131 43.416 316.323 43.672C316.547 43.928 316.643 44.376 316.611 45.016C316.611 46.36 316.499 48.184 316.275 50.488C316.083 52.792 315.731 55.4 315.219 58.312C316.659 57.032 318.195 55.8 319.827 54.616C321.491 53.4 323.171 52.296 324.867 51.304C326.595 50.28 328.291 49.368 329.955 48.568C331.651 47.768 333.267 47.112 334.803 46.6C335.571 46.312 336.099 46.232 336.387 46.36C336.707 46.456 336.867 46.648 336.867 46.936C336.867 47.192 336.755 47.464 336.531 47.752C336.307 48.04 336.051 48.216 335.763 48.28C334.131 48.664 332.371 49.304 330.483 50.2C328.627 51.064 326.755 52.104 324.867 53.32C322.979 54.504 321.155 55.816 319.395 57.256C317.635 58.664 316.051 60.088 314.643 61.528C314.067 64.568 313.331 67.72 312.435 70.984C311.539 74.248 310.483 77.416 309.267 80.488C308.051 83.592 306.659 86.488 305.091 89.176C303.555 91.896 301.811 94.184 299.859 96.04C299.059 96.808 298.211 97.352 297.315 97.672C296.387 98.024 295.571 98.088 294.867 97.864C294.163 97.672 293.635 97.16 293.283 96.328C292.899 95.496 292.851 94.296 293.139 92.728C293.395 91.32 293.891 89.752 294.627 88.024C295.331 86.296 296.195 84.488 297.219 82.6C298.243 80.744 299.363 78.856 300.579 76.936C301.795 75.016 303.027 73.16 304.275 71.368C305.523 69.576 306.723 67.896 307.875 66.328C309.059 64.792 310.099 63.464 310.995 62.344C311.443 60.872 311.875 59.304 312.291 57.64C312.707 55.944 313.075 54.344 313.395 52.84C313.747 51.304 314.035 49.944 314.259 48.76C314.483 47.576 314.643 46.744 314.739 46.264ZM301.011 86.44C302.547 83.976 303.987 81.16 305.331 77.992C306.707 74.824 307.955 71.624 309.075 68.392C308.179 69.672 307.251 71.032 306.291 72.472C305.331 73.912 304.387 75.368 303.459 76.84C302.563 78.344 301.683 79.832 300.819 81.304C299.987 82.808 299.219 84.248 298.515 85.624C297.523 87.576 296.899 89.032 296.643 89.992C296.355 90.984 296.355 91.496 296.643 91.528C296.931 91.592 297.459 91.192 298.227 90.328C298.995 89.464 299.923 88.168 301.011 86.44Z" fill="black"/>
</svg>
