<svg width="24" height="25" viewBox="0 0 24 25" fill="none" xmlns="http://www.w3.org/2000/svg">
<path d="M3.54998 20.4667C3.09998 20.4667 2.70414 20.2959 2.36248 19.9542C2.02081 19.6126 1.84998 19.2167 1.84998 18.7667V5.86675C1.84998 5.40008 2.02081 5.00008 2.36248 4.66675C2.70414 4.33341 3.09998 4.16675 3.54998 4.16675H20.45C20.9166 4.16675 21.3166 4.33341 21.65 4.66675C21.9833 5.00008 22.15 5.40008 22.15 5.86675V18.7667C22.15 19.2167 21.9833 19.6126 21.65 19.9542C21.3166 20.2959 20.9166 20.4667 20.45 20.4667H3.54998ZM20.45 7.39175L12.45 12.6417C12.3833 12.6751 12.3125 12.7084 12.2375 12.7417C12.1625 12.7751 12.0833 12.7917 12 12.7917C11.9166 12.7917 11.8375 12.7751 11.7625 12.7417C11.6875 12.7084 11.6166 12.6751 11.55 12.6417L3.54998 7.39175V18.7667H20.45V7.39175ZM12 11.3167L20.35 5.86675H3.67498L12 11.3167ZM3.54998 7.39175V7.56675V6.50425V6.51675V5.86675V6.51675V6.47925V7.56675V7.39175V18.7667V7.39175Z" fill="#E9A55B"/>
</svg>
