<svg width="24" height="25" viewBox="0 0 24 25" fill="none" xmlns="http://www.w3.org/2000/svg">
<path d="M19.875 21.4666C17.825 21.4666 15.7875 20.9625 13.7625 19.9541C11.7375 18.9458 9.91664 17.6333 8.29998 16.0166C6.68331 14.4 5.37081 12.575 4.36248 10.5416C3.35414 8.50829 2.84998 6.47496 2.84998 4.44163C2.84998 4.07496 2.97081 3.77079 3.21248 3.52913C3.45414 3.28746 3.75831 3.16663 4.12498 3.16663H7.62498C7.90831 3.16663 8.15831 3.25829 8.37498 3.44163C8.59164 3.62496 8.73331 3.87496 8.79998 4.19163L9.47498 7.26663C9.52498 7.54996 9.52081 7.80413 9.46248 8.02913C9.40414 8.25413 9.29164 8.44163 9.12498 8.59163L6.59998 11.0916C7.51664 12.575 8.52914 13.8708 9.63748 14.9791C10.7458 16.0875 12 17.025 13.4 17.7916L15.825 15.3166C16.025 15.1 16.2458 14.95 16.4875 14.8666C16.7291 14.7833 16.9833 14.775 17.25 14.8416L20.1 15.4916C20.4166 15.5583 20.6708 15.7083 20.8625 15.9416C21.0541 16.175 21.15 16.45 21.15 16.7666V20.1916C21.15 20.5416 21.0291 20.8416 20.7875 21.0916C20.5458 21.3416 20.2416 21.4666 19.875 21.4666ZM5.74998 9.54163L7.77498 7.54163L7.19998 4.86663H4.57498C4.55831 5.49996 4.64581 6.19163 4.83748 6.94163C5.02914 7.69163 5.33331 8.55829 5.74998 9.54163ZM19.45 19.7416V17.0916L16.95 16.5666L15 18.6166C15.65 18.9333 16.3666 19.1916 17.15 19.3916C17.9333 19.5916 18.7 19.7083 19.45 19.7416Z" fill="#E9A55B"/>
</svg>
