<svg width="24" height="25" viewBox="0 0 24 25" fill="none" xmlns="http://www.w3.org/2000/svg">
<path d="M6.65002 21.5667V8.61665L12.075 2.86665C12.3417 2.59999 12.6459 2.43749 12.9875 2.37915C13.3292 2.32082 13.6667 2.38332 14 2.56665C14.3 2.73332 14.5292 2.98332 14.6875 3.31665C14.8459 3.64999 14.8834 3.99999 14.8 4.36665L13.9 8.61665H21.275C21.725 8.61665 22.125 8.78749 22.475 9.12915C22.825 9.47082 23 9.86665 23 10.3167V12.0917C23 12.2083 23.0084 12.3333 23.025 12.4667C23.0417 12.6 23.025 12.725 22.975 12.8417L19.8 20.1917C19.6334 20.575 19.3625 20.9 18.9875 21.1667C18.6125 21.4333 18.2084 21.5667 17.775 21.5667H6.65002ZM8.30002 9.39165V19.8667H18.1L21.275 12.3667V10.3167H11.825L13.1 4.31665L8.30002 9.39165ZM3.47502 21.5667C3.00836 21.5667 2.60836 21.4042 2.27502 21.0792C1.94169 20.7542 1.77502 20.35 1.77502 19.8667V10.3167C1.77502 9.84999 1.94169 9.44999 2.27502 9.11665C2.60836 8.78332 3.00836 8.61665 3.47502 8.61665H6.65002V10.3167H3.47502V19.8667H6.65002V21.5667H3.47502ZM8.30002 19.8667V9.39165V19.8667Z" fill="#E9A55B"/>
</svg>
